<svg xmlns="http://www.w3.org/2000/svg" width="17" height="17" viewBox="0 0 17 17" fill="none">
  <path fill-rule="evenodd" clip-rule="evenodd" d="M13.5911 0H2.97312C2.54976 0 0.0164166 2.16552 0.000156209 2.17942H7.75825e-05V2.17949V10.4615H16.5642V2.17949V2.17942H16.5641C16.5478 2.16552 14.0145 0 13.5911 0ZM0 10.4616C0 12.0471 0.570417 13.0768 2.1236 14.1979C3.67679 15.319 6.08552 17.0001 8.28205 17.0001C10.3626 17.0001 12.443 15.4918 13.9769 14.3798C14.0623 14.3178 14.1461 14.257 14.2281 14.1979C15.7813 13.0768 16.5641 12.0471 16.5641 10.4616L8.28205 10.4616H0ZM14.4234 5.74174C14.4234 6.15388 14.2633 6.80948 13.9726 7.56826C14.7551 8.84086 13.986 10.9964 12.1446 12.5415C11.6733 12.937 11.1747 13.2563 10.6751 13.496C9.96196 13.8499 8.94947 14.1669 8.27039 14.1669C7.81155 14.1669 7.17562 14.0222 6.5777 13.8191C5.80406 13.5874 4.99646 13.154 4.25597 12.5326C2.42384 10.9953 1.65321 8.85367 2.4163 7.57868C2.12305 6.81548 1.96153 6.15576 1.96153 5.74174L1.96151 5.68223C1.9609 4.73547 1.95968 2.80519 3.20766 2.62635C3.74818 2.54889 4.5734 2.89691 5.4623 3.2718C6.38629 3.66148 7.37908 4.08018 8.19245 4.08018C8.91061 4.08018 9.81817 3.67157 10.6727 3.28684C11.4872 2.92013 12.2535 2.57511 12.7617 2.6263C14.2752 2.77876 14.4234 4.72247 14.4234 5.74174Z" fill="#929292"/>
  <circle cx="6.08597" cy="6.89054" r="0.60355" fill="#929292"/>
  <circle cx="10.5118" cy="6.89054" r="0.60355" fill="#929292"/>
  <path d="M2.85718 4.29111C2.83267 4.20797 2.86428 4.11849 2.93558 4.0692C3.04302 3.99493 3.19164 4.0414 3.23764 4.16364L3.39152 4.57257C3.42284 4.65581 3.47417 4.73006 3.54097 4.78877L3.87238 5.08002C3.96885 5.1648 3.95996 5.31766 3.85432 5.39069C3.78157 5.44098 3.68425 5.43675 3.61614 5.38033L3.2152 5.04825C3.09895 4.95197 3.01405 4.8232 2.97137 4.67842L2.85718 4.29111Z" fill="#929292"/>
  <path d="M13.6278 4.291C13.6523 4.2079 13.6208 4.11845 13.5495 4.06918C13.4421 3.99497 13.2936 4.04137 13.2476 4.1635L13.0936 4.57263C13.0623 4.65583 13.0109 4.73004 12.9442 4.78873L12.6126 5.08016C12.5162 5.16488 12.5251 5.31762 12.6307 5.3906C12.7034 5.44087 12.8006 5.43664 12.8687 5.38025L13.2698 5.048C13.3859 4.95177 13.4708 4.82311 13.5135 4.67844L13.6278 4.291Z" fill="#929292"/>
  <path fill-rule="evenodd" clip-rule="evenodd" d="M8.7012 9.25056C9.02077 9.14099 9.38601 8.94239 9.48532 8.74378C9.63365 8.44715 8.95411 8.29884 8.29881 8.29884C7.64352 8.29884 6.964 8.44715 7.11229 8.74378C7.21158 8.94239 7.57686 9.14101 7.89646 9.25058V9.81069L6.92081 10.5759C6.79305 10.6761 6.7707 10.8609 6.8709 10.9886C6.9711 11.1164 7.1559 11.1387 7.28366 11.0385L8.27209 10.2633L9.26058 11.0387C9.38834 11.1389 9.57313 11.1166 9.67334 10.9888C9.77355 10.8611 9.75122 10.6763 9.62347 10.5761L8.7012 9.85264V9.25056Z" fill="#929292"/>
</svg>