<svg width="17" height="17" viewBox="0 0 17 17" fill="none" xmlns="http://www.w3.org/2000/svg">
<g clip-path="url(#clip0_1331_13615)">
<path d="M16.9951 5.03713C16.9549 4.06585 16.6545 3.12507 16.1274 2.31915C15.6003 1.51323 14.867 0.873691 14.0089 0.47149C13.1508 0.0692892 12.2015 -0.0798484 11.2662 0.0406243C10.331 0.161097 9.44632 0.546469 8.71049 1.15398C8.65045 1.20292 8.57616 1.22954 8.49964 1.22954C8.42311 1.22954 8.34882 1.20292 8.28878 1.15398C7.32884 0.360447 6.12322 -0.0485721 4.89401 0.00227654C3.6648 0.0531252 2.4948 0.560416 1.59956 1.4307C0.704317 2.30098 0.144132 3.47562 0.0221997 4.73824C-0.0997322 6.00086 0.224803 7.2664 0.936021 8.30172C0.975765 8.36056 0.997072 8.43055 0.997072 8.50225C0.997072 8.57396 0.975765 8.64395 0.936021 8.70278C0.226619 9.73822 -0.0964435 11.003 0.0262613 12.2646C0.148966 13.5261 0.709185 14.6996 1.60387 15.569C2.49855 16.4385 3.66752 16.9455 4.89576 16.9968C6.12399 17.048 7.32888 16.6402 8.28878 15.8482C8.34882 15.7992 8.42311 15.7726 8.49964 15.7726C8.57616 15.7726 8.65045 15.7992 8.71049 15.8482C9.67043 16.6417 10.8761 17.0507 12.1053 16.9999C13.3345 16.949 14.5045 16.4418 15.3997 15.5715C16.295 14.7012 16.8551 13.5265 16.9771 12.2639C17.099 11.0013 16.7745 9.73577 16.0633 8.70045C16.0235 8.64161 16.0022 8.57162 16.0022 8.49992C16.0022 8.42821 16.0235 8.35822 16.0633 8.29939C16.7171 7.34917 17.045 6.20119 16.9951 5.03713Z" fill="#929292"/>
<path d="M13.2025 5.26868C13.342 5.09984 13.4458 4.90285 13.5073 4.69029C13.5688 4.47773 13.5866 4.25428 13.5596 4.03421C13.5327 3.81414 13.4615 3.6023 13.3506 3.41222C13.2398 3.22214 13.0917 3.05799 12.9159 2.93028C12.74 2.80256 12.5403 2.71409 12.3294 2.6705C12.1186 2.62691 11.9012 2.62917 11.6912 2.67714C11.4813 2.7251 11.2833 2.81771 11.11 2.94906C10.9367 3.08041 10.7918 3.24759 10.6847 3.43994C10.6438 3.51417 10.5804 3.57247 10.5042 3.60585C10.428 3.63923 10.3432 3.64585 10.263 3.62469C9.68699 3.47903 9.09555 3.40833 8.50249 3.41422C7.89796 3.40946 7.29531 3.48411 6.70907 3.63638C6.62805 3.65812 6.54229 3.65128 6.46547 3.61696C6.38864 3.58264 6.32515 3.52279 6.28509 3.44696C6.17813 3.25312 6.03294 3.08458 5.8589 2.95222C5.68485 2.81986 5.48583 2.72662 5.27468 2.67852C5.06353 2.63043 4.84495 2.62855 4.63305 2.673C4.42115 2.71746 4.22064 2.80726 4.04448 2.93661C3.86832 3.06596 3.72043 3.23198 3.61034 3.42395C3.50026 3.61591 3.43043 3.82956 3.40538 4.0511C3.38033 4.27263 3.4006 4.49712 3.46489 4.71007C3.52918 4.92302 3.63606 5.11969 3.77863 5.28739C3.83421 5.34987 3.86849 5.42937 3.87626 5.51379C3.88404 5.5982 3.86488 5.68293 3.8217 5.7551C3.3161 6.59697 3.06104 7.62359 3.06104 8.76246C3.06104 11.8458 5.31697 14.3621 8.46734 14.3644C11.3819 14.3644 13.9462 11.8458 13.9462 8.76246C13.9462 7.61423 13.6821 6.57826 13.1674 5.73171C13.1246 5.66076 13.1049 5.57755 13.1113 5.49424C13.1176 5.41094 13.1496 5.3319 13.2025 5.26868Z" fill="white"/>
<path d="M8.53876 10.3527H8.42539C8.24409 10.3534 8.06672 10.2982 7.91617 10.194C7.76563 10.0897 7.64882 9.94138 7.58083 9.76802C7.53852 9.66124 7.52239 9.54535 7.53386 9.43061C7.54534 9.31587 7.58406 9.20581 7.64662 9.11019C7.70917 9.01457 7.79361 8.93633 7.89248 8.88241C7.99134 8.82848 8.10157 8.80053 8.2134 8.80103H8.75075C8.86258 8.80053 8.97281 8.82848 9.07167 8.88241C9.17054 8.93633 9.25498 9.01457 9.31753 9.11019C9.38008 9.20581 9.41881 9.31587 9.43029 9.43061C9.44176 9.54535 9.42563 9.66124 9.38331 9.76802C9.31533 9.94138 9.19852 10.0897 9.04798 10.194C8.89743 10.2982 8.72006 10.3534 8.53876 10.3527Z" fill="#929292"/>
<path d="M7.78925 12.4328C7.6196 12.4342 7.45507 12.3728 7.32559 12.2598C7.22627 12.1718 7.15137 12.0583 7.10855 11.9307C7.06572 11.8031 7.05652 11.6661 7.08186 11.5336C7.08773 11.5026 7.10529 11.4753 7.1307 11.4576C7.1561 11.44 7.18727 11.4335 7.21733 11.4395C7.2474 11.4456 7.2739 11.4637 7.29102 11.4899C7.30813 11.5161 7.31445 11.5482 7.30859 11.5792C7.29196 11.6703 7.29928 11.7643 7.32978 11.8515C7.36028 11.9387 7.41285 12.0159 7.48204 12.075C7.55723 12.1369 7.64768 12.176 7.74321 12.1877C7.83874 12.1995 7.93556 12.1836 8.02278 12.1417C8.12888 12.0852 8.21498 11.9955 8.26878 11.8856C8.33214 11.7592 8.36702 11.6197 8.37081 11.4775C8.36174 9.67568 8.36174 9.67568 8.48417 9.66047C8.51355 9.65795 8.54284 9.66634 8.56675 9.68414C8.59066 9.70194 8.60761 9.72796 8.61454 9.75752C8.62006 9.78219 8.61767 9.80804 8.60774 9.83119C8.5964 10.0101 8.5964 10.9151 8.59867 11.4775C8.59584 11.6584 8.55238 11.8361 8.4717 11.9967C8.39351 12.1538 8.26883 12.2812 8.11574 12.3603C8.01324 12.4084 7.90187 12.4332 7.78925 12.4328Z" fill="#929292"/>
<path d="M7.7893 12.4936C7.60549 12.4946 7.42739 12.4278 7.2871 12.3053C7.18061 12.2103 7.10054 12.0878 7.05512 11.9503C7.0097 11.8129 7.00055 11.6654 7.02863 11.5231C7.03735 11.4758 7.06393 11.434 7.10251 11.4069C7.1411 11.3799 7.18853 11.3697 7.23439 11.3787C7.28024 11.3877 7.32074 11.4151 7.347 11.4549C7.37326 11.4947 7.38311 11.5436 7.37439 11.5909C7.35887 11.6707 7.36412 11.7533 7.38961 11.8303C7.4151 11.9074 7.45992 11.976 7.5195 12.0294C7.58586 12.0841 7.66578 12.1185 7.75016 12.1286C7.83454 12.1387 7.91999 12.1242 7.99676 12.0867C8.09235 12.0349 8.1694 11.953 8.21668 11.8528C8.27463 11.7356 8.30676 11.6067 8.31077 11.4752C8.3017 9.61953 8.3017 9.61953 8.48195 9.59731C8.52562 9.59327 8.56925 9.60558 8.60484 9.63199C8.64044 9.6584 8.66563 9.69714 8.6758 9.74113C8.68488 9.774 8.68488 9.80882 8.6758 9.84169C8.66447 10.0393 8.66447 10.942 8.66673 11.4787C8.66366 11.6702 8.61747 11.8583 8.53183 12.0282C8.44758 12.1961 8.3138 12.332 8.1498 12.4164C8.03649 12.4688 7.91347 12.4952 7.7893 12.4936ZM7.19641 11.4962C7.18288 11.4963 7.16981 11.5012 7.15945 11.5102C7.14909 11.5191 7.14211 11.5316 7.13973 11.5453C7.11679 11.6673 7.12569 11.7935 7.16553 11.9108C7.20537 12.0281 7.27471 12.1324 7.36645 12.213C7.48536 12.3173 7.63661 12.3741 7.7927 12.3732C7.89676 12.373 7.99959 12.3499 8.09425 12.3053C8.23691 12.2321 8.35267 12.1131 8.42414 11.9662C8.49991 11.815 8.54102 11.6478 8.5443 11.4775C8.5443 10.9139 8.5443 10.0101 8.55337 9.82766V9.80895C8.55734 9.79681 8.55734 9.78367 8.55337 9.77153C8.54952 9.75641 8.54081 9.74308 8.52866 9.73373C8.51651 9.72439 8.50164 9.71957 8.48649 9.72008H8.45928C8.41167 9.76101 8.41393 10.2264 8.4196 11.474C8.41458 11.6271 8.37581 11.7771 8.30624 11.9125C8.24637 12.0329 8.15115 12.1307 8.03417 12.1919C7.937 12.2389 7.829 12.257 7.72242 12.244C7.61583 12.2309 7.5149 12.1874 7.43107 12.1183C7.35807 12.0503 7.30348 11.9638 7.27267 11.8675C7.24186 11.7711 7.2359 11.6682 7.25536 11.5687C7.25836 11.5529 7.25514 11.5365 7.24643 11.5231C7.23771 11.5097 7.22421 11.5005 7.20888 11.4974L7.19641 11.4962Z" fill="#929292"/>
<path d="M9.17451 12.4328C9.06189 12.4332 8.95052 12.4084 8.84802 12.3603C8.69201 12.2824 8.56586 12.1527 8.4898 11.992C8.41249 11.8319 8.36994 11.6563 8.3651 11.4775C8.3651 10.9151 8.36509 10.0101 8.35489 9.83119C8.3472 9.80727 8.3472 9.78144 8.35489 9.75752C8.36182 9.72796 8.37877 9.70194 8.40268 9.68414C8.42659 9.66634 8.45588 9.65795 8.48526 9.66047C8.61336 9.67568 8.61336 9.67567 8.59862 11.4787C8.60392 11.618 8.63752 11.7547 8.69725 11.8797C8.75028 11.9929 8.83791 12.0849 8.94665 12.1417C9.03387 12.1836 9.13069 12.1995 9.22622 12.1877C9.32175 12.176 9.4122 12.1369 9.48739 12.075C9.55553 12.0145 9.6067 11.9363 9.63561 11.8485C9.66452 11.7607 9.6701 11.6665 9.65177 11.5757C9.64887 11.5604 9.64893 11.5446 9.65194 11.5293C9.65496 11.5139 9.66087 11.4994 9.66934 11.4864C9.67782 11.4734 9.68869 11.4623 9.70133 11.4536C9.71397 11.445 9.72814 11.439 9.74303 11.436C9.75792 11.433 9.77323 11.4331 9.78809 11.4362C9.80296 11.4393 9.81708 11.4454 9.82966 11.4541C9.84224 11.4629 9.85303 11.4741 9.86141 11.4871C9.86979 11.5002 9.8756 11.5148 9.8785 11.5301C9.90438 11.663 9.89555 11.8006 9.85292 11.9288C9.8103 12.057 9.7354 12.1712 9.6359 12.2598C9.50701 12.3723 9.34339 12.4337 9.17451 12.4328Z" fill="#929292"/>
<path d="M9.17428 12.4937C9.05308 12.4935 8.93328 12.4668 8.82285 12.4153C8.65521 12.3316 8.51953 12.1925 8.43742 12.0201C8.35584 11.8513 8.31097 11.6661 8.30591 11.4776C8.30591 10.9455 8.30591 10.0417 8.29684 9.84059C8.28777 9.80773 8.28777 9.7729 8.29684 9.74003C8.30702 9.69604 8.33221 9.6573 8.3678 9.63089C8.4034 9.60448 8.44702 9.59217 8.4907 9.59621C8.67094 9.61843 8.67094 9.61843 8.66188 11.4752C8.66735 11.6047 8.69861 11.7317 8.7537 11.8482C8.80219 11.9498 8.88191 12.0321 8.98043 12.0821C9.0572 12.1196 9.14264 12.1341 9.22702 12.124C9.3114 12.1139 9.39133 12.0795 9.45769 12.0248C9.51727 11.9714 9.56208 11.9027 9.58757 11.8257C9.61306 11.7487 9.61831 11.6661 9.60279 11.5863C9.59407 11.539 9.60393 11.4901 9.63018 11.4503C9.65644 11.4105 9.69695 11.3831 9.7428 11.3741C9.78865 11.3651 9.83608 11.3753 9.87467 11.4023C9.91326 11.4294 9.93983 11.4712 9.94855 11.5185C9.97609 11.6612 9.96624 11.8089 9.92002 11.9464C9.87379 12.0839 9.79285 12.2062 9.68555 12.3007C9.54355 12.427 9.36178 12.4956 9.17428 12.4937ZM8.46802 9.72016C8.45374 9.72054 8.43999 9.7258 8.42891 9.73511C8.41783 9.74442 8.41006 9.75725 8.40681 9.7716C8.40283 9.78374 8.40283 9.79688 8.40681 9.80902V9.82773C8.41814 10.009 8.41928 10.914 8.41588 11.4776C8.41876 11.6463 8.45746 11.8123 8.52924 11.964C8.59926 12.1129 8.71586 12.2332 8.86026 12.3054C8.95492 12.35 9.05775 12.3731 9.16181 12.3732C9.3179 12.3742 9.46915 12.3174 9.58806 12.213C9.6798 12.1324 9.74914 12.0282 9.78898 11.9108C9.82882 11.7935 9.83772 11.6674 9.81478 11.5454C9.81342 11.5376 9.81057 11.5301 9.80638 11.5235C9.8022 11.5168 9.79677 11.5111 9.79042 11.5066C9.78406 11.5022 9.77691 11.4991 9.76938 11.4975C9.76184 11.4959 9.75408 11.4959 9.74654 11.4975C9.739 11.499 9.73184 11.5021 9.72547 11.5065C9.71911 11.511 9.71366 11.5167 9.70946 11.5233C9.70526 11.53 9.70238 11.5374 9.701 11.5452C9.69962 11.553 9.69976 11.561 9.70142 11.5688C9.72089 11.6689 9.7146 11.7725 9.68317 11.8693C9.65175 11.9662 9.59629 12.0528 9.5223 12.1207C9.43871 12.1902 9.33782 12.2342 9.23117 12.2474C9.12453 12.2606 9.01642 12.2426 8.91921 12.1955C8.79837 12.1347 8.70121 12.0332 8.64374 11.9079C8.57926 11.7742 8.54331 11.6279 8.53831 11.4787C8.53831 10.2311 8.54624 9.76576 8.49863 9.72483H8.47029L8.46802 9.72016Z" fill="#929292"/>
<path d="M6.70207 7.21559H5.50495C5.48545 7.21559 5.46614 7.21956 5.44812 7.22725C5.4301 7.23495 5.41373 7.24623 5.39994 7.26046C5.38615 7.27468 5.37521 7.29157 5.36775 7.31015C5.36029 7.32874 5.35645 7.34865 5.35645 7.36877C5.35645 7.38888 5.36029 7.4088 5.36775 7.42739C5.37521 7.44597 5.38615 7.46286 5.39994 7.47708C5.41373 7.4913 5.4301 7.50259 5.44812 7.51028C5.46614 7.51798 5.48545 7.52194 5.50495 7.52194H5.98675V8.3112C5.98675 8.42997 6.03249 8.54388 6.11392 8.62786C6.19534 8.71185 6.30578 8.75903 6.42093 8.75903C6.53608 8.75903 6.64652 8.71185 6.72794 8.62786C6.80937 8.54388 6.85511 8.42997 6.85511 8.3112V7.36643C6.85393 7.32559 6.83721 7.28688 6.80857 7.25865C6.77993 7.23043 6.74168 7.21496 6.70207 7.21559Z" fill="#929292"/>
<path d="M6.42113 8.80224C6.29263 8.80443 6.16854 8.75396 6.07609 8.66189C5.98364 8.56982 5.93038 8.44368 5.928 8.31115V7.58153H5.50515C5.47806 7.58153 5.45123 7.57602 5.42619 7.56533C5.40116 7.55463 5.37842 7.53896 5.35926 7.5192C5.3401 7.49944 5.3249 7.47598 5.31453 7.45016C5.30416 7.42434 5.29883 7.39667 5.29883 7.36872C5.29883 7.34077 5.30416 7.3131 5.31453 7.28728C5.3249 7.26146 5.3401 7.238 5.35926 7.21824C5.37842 7.19848 5.40116 7.18281 5.42619 7.17211C5.45123 7.16142 5.47806 7.15591 5.50515 7.15591H6.70227C6.75751 7.15497 6.81088 7.17654 6.85078 7.21595C6.89069 7.25536 6.91391 7.30942 6.91539 7.36638V8.30881C6.91451 8.37473 6.901 8.43983 6.87565 8.50035C6.85031 8.56087 6.81361 8.61563 6.76768 8.66148C6.72176 8.70733 6.6675 8.74337 6.60802 8.76753C6.54855 8.79169 6.48503 8.80348 6.42113 8.80224ZM5.50515 7.27635C5.4814 7.27635 5.45862 7.28608 5.44182 7.3034C5.42503 7.32073 5.41559 7.34422 5.41559 7.36872C5.41559 7.39322 5.42503 7.41671 5.44182 7.43404C5.45862 7.45136 5.4814 7.46109 5.50515 7.46109H6.04476V8.31115C6.04476 8.41411 6.08441 8.51285 6.155 8.58565C6.22558 8.65845 6.32131 8.69935 6.42113 8.69935C6.52095 8.69935 6.61668 8.65845 6.68726 8.58565C6.75784 8.51285 6.79749 8.41411 6.79749 8.31115V7.36638C6.79661 7.34116 6.78611 7.31731 6.76828 7.30002C6.75045 7.28272 6.72673 7.27338 6.70227 7.27401L5.50515 7.27635Z" fill="#929292"/>
<path d="M11.2605 7.21558H10.0645C10.045 7.21558 10.0257 7.21954 10.0077 7.22724C9.98967 7.23493 9.9733 7.24622 9.95951 7.26044C9.94572 7.27466 9.93478 7.29155 9.92732 7.31013C9.91986 7.32872 9.91602 7.34864 9.91602 7.36875C9.91602 7.38887 9.91986 7.40878 9.92732 7.42737C9.93478 7.44595 9.94572 7.46284 9.95951 7.47706C9.9733 7.49128 9.98967 7.50257 10.0077 7.51027C10.0257 7.51796 10.045 7.52192 10.0645 7.52192H10.5429V8.31118C10.5486 8.42615 10.5969 8.53447 10.6778 8.61376C10.7587 8.69306 10.8661 8.73728 10.9777 8.73728C11.0893 8.73728 11.1966 8.69306 11.2775 8.61376C11.3584 8.53447 11.4067 8.42615 11.4124 8.31118V7.36641C11.4109 7.32588 11.3943 7.28751 11.366 7.25938C11.3376 7.23125 11.2998 7.21555 11.2605 7.21558Z" fill="#929292"/>
<path d="M10.9802 8.80224C10.8517 8.80443 10.7276 8.75396 10.6352 8.66189C10.5427 8.56982 10.4895 8.44368 10.4871 8.31115V7.58153H10.0642C10.0371 7.58153 10.0103 7.57602 9.98528 7.56533C9.96024 7.55463 9.9375 7.53896 9.91834 7.5192C9.89918 7.49944 9.88398 7.47598 9.87362 7.45016C9.86325 7.42434 9.85791 7.39667 9.85791 7.36872C9.85791 7.34077 9.86325 7.3131 9.87362 7.28728C9.88398 7.26146 9.89918 7.238 9.91834 7.21824C9.9375 7.19848 9.96024 7.18281 9.98528 7.17211C10.0103 7.16142 10.0371 7.15591 10.0642 7.15591H11.2602C11.3155 7.15497 11.3688 7.17654 11.4087 7.21595C11.4486 7.25536 11.4719 7.30942 11.4733 7.36638V8.30881C11.4725 8.37463 11.459 8.43963 11.4337 8.50007C11.4084 8.56052 11.3718 8.61522 11.326 8.66106C11.2802 8.7069 11.2261 8.74296 11.1668 8.76719C11.1074 8.79141 11.044 8.80333 10.9802 8.80224ZM10.0642 7.27635C10.0405 7.27635 10.0177 7.28608 10.0009 7.3034C9.98411 7.32073 9.97467 7.34422 9.97467 7.36872C9.97467 7.39322 9.98411 7.41671 10.0009 7.43404C10.0177 7.45136 10.0405 7.46109 10.0642 7.46109H10.6038V8.31115C10.6091 8.41027 10.651 8.50354 10.7209 8.57178C10.7908 8.64002 10.8834 8.67805 10.9796 8.67805C11.0759 8.67805 11.1685 8.64002 11.2384 8.57178C11.3083 8.50354 11.3502 8.41027 11.3554 8.31115V7.36638C11.3546 7.34116 11.3441 7.31731 11.3262 7.30002C11.3084 7.28272 11.2847 7.27338 11.2602 7.27401L10.0642 7.27635Z" fill="#929292"/>
</g>
<defs>
<clipPath id="clip0_1331_13615">
<rect width="17" height="17" fill="white"/>
</clipPath>
</defs>
</svg>
