<svg width="24" height="24" viewBox="0 0 24 24" fill="none" xmlns="http://www.w3.org/2000/svg">
<g clip-path="url(#clip0_1459_4193)">
<path d="M11.9999 19.7268L11.0962 18.9095C9.45515 17.439 8.10099 16.1843 7.03365 15.1453C5.96632 14.1061 5.12815 13.19 4.51915 12.397C3.91015 11.6042 3.48807 10.8853 3.2529 10.2403C3.01757 9.59542 2.8999 8.94033 2.8999 8.275C2.8999 6.93917 3.36174 5.80933 4.2854 4.8855C5.20924 3.96183 6.33907 3.5 7.6749 3.5C8.4979 3.5 9.28957 3.69583 10.0499 4.0875C10.8102 4.47917 11.4602 5.03975 11.9999 5.76925C12.5396 5.03975 13.1896 4.47917 13.9499 4.0875C14.7102 3.69583 15.5019 3.5 16.3249 3.5C17.6607 3.5 18.7906 3.96183 19.7144 4.8855C20.6381 5.80933 21.0999 6.93917 21.0999 8.275C21.0999 8.94033 20.9864 9.58708 20.7594 10.2153C20.5326 10.8436 20.1147 11.55 19.5057 12.3345C18.8967 13.1192 18.0559 14.0394 16.9834 15.0953C15.9111 16.1509 14.5345 17.439 12.8537 18.9595L11.9999 19.7268ZM11.9999 17.975C13.5499 16.5853 14.8249 15.4013 15.8249 14.423C16.8249 13.4448 17.6207 12.5933 18.2124 11.8683C18.8041 11.1433 19.2166 10.499 19.4499 9.9355C19.6832 9.37217 19.7999 8.81867 19.7999 8.275C19.7999 7.29167 19.4666 6.46667 18.7999 5.8C18.1332 5.13333 17.3082 4.8 16.3249 4.8C15.7352 4.8 15.1846 4.924 14.6729 5.172C14.1614 5.42017 13.6518 5.81858 13.1442 6.36725L12.2692 7.39225H11.7307L10.8557 6.36725C10.3415 5.81208 9.8219 5.41208 9.2969 5.16725C8.7719 4.92242 8.23124 4.8 7.6749 4.8C6.6979 4.8 5.87449 5.13333 5.20465 5.8C4.53482 6.46667 4.1999 7.29167 4.1999 8.275C4.1999 8.81867 4.30824 9.35967 4.5249 9.898C4.74157 10.4365 5.1374 11.0641 5.7124 11.7808C6.2874 12.4974 7.07907 13.3474 8.0874 14.3308C9.09574 15.3141 10.3999 16.5288 11.9999 17.975Z" fill="#F97C69"/>
</g>
<defs>
<clipPath id="clip0_1459_4193">
<rect width="24" height="24" fill="white"/>
</clipPath>
</defs>
</svg>
