<svg width="16" height="16" viewBox="0 0 16 16" fill="none" xmlns="http://www.w3.org/2000/svg">
<g clip-path="url(#clip0_780_1918)">
<path d="M8.00026 13.1513L7.39776 12.6065C6.30376 11.6262 5.40098 10.7897 4.68943 10.097C3.97787 9.40422 3.41909 8.7935 3.01309 8.26483C2.60709 7.73627 2.3257 7.257 2.16893 6.827C2.01204 6.39711 1.93359 5.96039 1.93359 5.51683C1.93359 4.62627 2.24148 3.87305 2.85726 3.25716C3.47315 2.64138 4.22637 2.3335 5.11693 2.3335C5.66559 2.3335 6.19337 2.46405 6.70026 2.72516C7.20715 2.98627 7.64048 3.36 8.00026 3.84633C8.36004 3.36 8.79337 2.98627 9.30026 2.72516C9.80715 2.46405 10.3349 2.3335 10.8836 2.3335C11.7741 2.3335 12.5274 2.64138 13.1433 3.25716C13.759 3.87305 14.0669 4.62627 14.0669 5.51683C14.0669 5.96039 13.9913 6.39155 13.8399 6.81033C13.6887 7.22922 13.4101 7.70016 13.0041 8.22316C12.5981 8.74627 12.0376 9.35978 11.3226 10.0637C10.6077 10.7674 9.68998 11.6262 8.56943 12.6398L8.00026 13.1513ZM8.00026 11.9835C9.03359 11.0571 9.88359 10.2677 10.5503 9.6155C11.2169 8.96339 11.7475 8.39566 12.1419 7.91233C12.5364 7.429 12.8114 6.9995 12.9669 6.62383C13.1225 6.24827 13.2003 5.87927 13.2003 5.51683C13.2003 4.86127 12.978 4.31127 12.5336 3.86683C12.0891 3.42239 11.5392 3.20016 10.8836 3.20016C10.4905 3.20016 10.1234 3.28283 9.78226 3.44816C9.44126 3.61361 9.10154 3.87922 8.76309 4.245L8.17976 4.92833H7.82076L7.23743 4.245C6.89465 3.87489 6.54826 3.60822 6.19826 3.445C5.84826 3.28177 5.48782 3.20016 5.11693 3.20016C4.46559 3.20016 3.91665 3.42239 3.47009 3.86683C3.02354 4.31127 2.80026 4.86127 2.80026 5.51683C2.80026 5.87927 2.87248 6.23994 3.01693 6.59883C3.16137 6.95783 3.42526 7.37622 3.80859 7.854C4.19193 8.33178 4.71971 8.89844 5.39193 9.554C6.06415 10.2096 6.93359 11.0194 8.00026 11.9835Z" fill="#FA9487"/>
</g>
<defs>
<clipPath id="clip0_780_1918">
<rect width="16" height="16" fill="white"/>
</clipPath>
</defs>
</svg>
