<svg width="28" height="35" viewBox="0 0 28 35" fill="none" xmlns="http://www.w3.org/2000/svg">
<path d="M14 34.1368C9.54426 30.3023 6.22562 26.7558 4.02165 23.4984C1.74684 20.1362 0.65625 17.0918 0.65625 14.3505C0.65625 10.13 2.00671 6.82999 4.66679 4.37665C7.36468 1.88844 10.4667 0.656738 14 0.656738C17.5333 0.656738 20.6353 1.88844 23.3332 4.37665C25.9933 6.82999 27.3438 10.13 27.3438 14.3505C27.3438 17.0918 26.2532 20.1362 23.9783 23.4984C21.7744 26.7558 18.4557 30.3023 14 34.1368Z" fill="#F97C69" stroke="#CB4B39" stroke-width="1.3125"/>
<path d="M8.8702 20.2981C8.21964 20.2981 7.66735 20.0706 7.21332 19.6156C6.75929 19.1606 6.53228 18.6082 6.53228 17.9583H5.12207V9.25646C5.12207 8.83549 5.2679 8.47917 5.55957 8.1875C5.85124 7.89583 6.20749 7.75 6.62832 7.75H17.9746V10.9231H20.186L22.8783 14.529V17.9583H21.3721C21.3721 18.6082 21.1444 19.1606 20.6889 19.6156C20.2337 20.0706 19.6808 20.2981 19.0304 20.2981C18.38 20.2981 17.8277 20.0706 17.3735 19.6156C16.9195 19.1606 16.6925 18.6082 16.6925 17.9583H11.2117C11.2117 18.61 10.984 19.1628 10.5287 19.6169C10.0735 20.071 9.52061 20.2981 8.8702 20.2981ZM8.87207 19.0481C9.17763 19.0481 9.43561 18.9428 9.64603 18.7323C9.85644 18.5219 9.96165 18.2639 9.96165 17.9583C9.96165 17.6528 9.85644 17.3947 9.64603 17.1842C9.43561 16.9737 9.17763 16.8685 8.87207 16.8685C8.56651 16.8685 8.30846 16.9737 8.0979 17.1842C7.88749 17.3947 7.78228 17.6528 7.78228 17.9583C7.78228 18.2639 7.88749 18.5219 8.0979 18.7323C8.30846 18.9428 8.56651 19.0481 8.87207 19.0481ZM6.37207 16.7083H6.97457C7.15193 16.3996 7.40804 16.1408 7.7429 15.9319C8.0779 15.723 8.45429 15.6185 8.87207 15.6185C9.27901 15.6185 9.65263 15.7217 9.9929 15.9279C10.3332 16.1342 10.592 16.3943 10.7694 16.7083H16.7246V9H6.62832C6.56429 9 6.50554 9.02674 6.45207 9.08021C6.39874 9.13354 6.37207 9.19229 6.37207 9.25646V16.7083ZM19.0323 19.0481C19.3378 19.0481 19.5958 18.9428 19.8062 18.7323C20.0168 18.5219 20.1221 18.2639 20.1221 17.9583C20.1221 17.6528 20.0168 17.3947 19.8062 17.1842C19.5958 16.9737 19.3378 16.8685 19.0323 16.8685C18.7267 16.8685 18.4687 16.9737 18.2581 17.1842C18.0477 17.3947 17.9425 17.6528 17.9425 17.9583C17.9425 18.2639 18.0477 18.5219 18.2581 18.7323C18.4687 18.9428 18.7267 19.0481 19.0323 19.0481ZM17.9746 15.0417H21.7085L19.545 12.1731H17.9746V15.0417Z" fill="white"/>
</svg>
