<svg width="24" height="30" viewBox="0 0 24 30" fill="none" xmlns="http://www.w3.org/2000/svg">
<path d="M12 15.5625C12.9754 15.5625 13.8244 15.2086 14.5165 14.5165C15.2086 13.8244 15.5625 12.9754 15.5625 12C15.5625 11.0246 15.2086 10.1756 14.5165 9.4835C13.8244 8.79136 12.9754 8.4375 12 8.4375C11.0246 8.4375 10.1756 8.79136 9.4835 9.4835C8.79136 10.1756 8.4375 11.0246 8.4375 12C8.4375 12.9754 8.79136 13.8244 9.4835 14.5165C10.1756 15.2086 11.0246 15.5625 12 15.5625ZM12 29.2597C8.18079 25.973 5.33624 22.9331 3.44713 20.141C1.49729 17.2592 0.5625 14.6497 0.5625 12.3C0.5625 8.68241 1.72003 5.85385 4.0001 3.75099C6.31258 1.61824 8.97149 0.5625 12 0.5625C15.0285 0.5625 17.6874 1.61824 19.9999 3.75099C22.28 5.85385 23.4375 8.68241 23.4375 12.3C23.4375 14.6497 22.5027 17.2592 20.5529 20.141C18.6638 22.9331 15.8192 25.973 12 29.2597Z" fill="#F1AE7E" stroke="#E2894A" stroke-width="1.125"/>
</svg>
