<svg width="28" height="35" viewBox="0 0 28 35" fill="none" xmlns="http://www.w3.org/2000/svg">
<path d="M14 34.1368C9.54426 30.3023 6.22562 26.7558 4.02165 23.4984C1.74684 20.1362 0.65625 17.0918 0.65625 14.3505C0.65625 10.13 2.00671 6.82999 4.66679 4.37665C7.36468 1.88844 10.4667 0.656738 14 0.656738C17.5333 0.656738 20.6353 1.88844 23.3332 4.37665C25.9933 6.82999 27.3438 10.13 27.3438 14.3505C27.3438 17.0918 26.2532 20.1362 23.9783 23.4984C21.7744 26.7558 18.4557 30.3023 14 34.1368Z" fill="#F97C69" stroke="#CB4B39" stroke-width="1.3125"/>
<path d="M15.3528 15.2559C14.9964 14.6526 14.4737 14.2446 13.7849 14.0317C13.0961 13.8189 12.3843 13.7125 11.6496 13.7125C10.9171 13.7125 10.2036 13.8189 9.50912 14.0317C8.81448 14.2446 8.29363 14.6526 7.94655 15.2559H15.3528ZM6.5 16.3504C6.5 15.1558 7.02761 14.2351 8.08282 13.5883C9.13803 12.9414 10.3269 12.618 11.6496 12.618C12.9723 12.618 14.1613 12.9414 15.2165 13.5883C16.2717 14.2351 16.7993 15.1558 16.7993 16.3504H6.5ZM6.5 19.0166V17.9221H16.7993V19.0166H6.5ZM18.2587 21.6826V20.5881H19.2802L20.3017 10.5131H13.5299L13.3896 9.41864H16.8977V6.5H17.992V9.41864H21.5L20.3522 20.8211C20.3204 21.0736 20.21 21.2804 20.0212 21.4413C19.8322 21.6022 19.6114 21.6826 19.3588 21.6826H18.2587ZM7.08938 21.6826C6.92229 21.6826 6.78232 21.6261 6.66946 21.5131C6.55649 21.4002 6.5 21.2602 6.5 21.0932V20.5881H16.7993V21.0932C16.7993 21.2602 16.7429 21.4002 16.6299 21.5131C16.5169 21.6261 16.3769 21.6826 16.21 21.6826H7.08938Z" fill="white"/>
</svg>
