<svg width="28" height="35" viewBox="0 0 28 35" fill="none" xmlns="http://www.w3.org/2000/svg">
<path d="M14 34.1368C9.54426 30.3023 6.22562 26.7558 4.02165 23.4984C1.74684 20.1362 0.65625 17.0918 0.65625 14.3505C0.65625 10.13 2.00671 6.82999 4.66679 4.37665C7.36468 1.88844 10.4667 0.656738 14 0.656738C17.5333 0.656738 20.6353 1.88844 23.3332 4.37665C25.9933 6.82999 27.3438 10.13 27.3438 14.3505C27.3438 17.0918 26.2532 20.1362 23.9783 23.4984C21.7744 26.7558 18.4557 30.3023 14 34.1368Z" fill="#F97C69" stroke="#CB4B39" stroke-width="1.3125"/>
<path d="M21.3046 13.1443V19.7854C21.3046 20.2063 21.1587 20.5627 20.8671 20.8543C20.5754 21.146 20.2192 21.2918 19.7983 21.2918H8.2277C7.80686 21.2918 7.45061 21.146 7.15895 20.8543C6.86728 20.5627 6.72145 20.2063 6.72145 19.7854V13.1283C6.38589 12.8527 6.13402 12.4951 5.96582 12.0554C5.79749 11.6158 5.79402 11.1412 5.95541 10.6316L6.79832 7.87829C6.90943 7.52787 7.09798 7.2453 7.36395 7.03058C7.63006 6.81586 7.94791 6.7085 8.31749 6.7085H19.6925C20.0622 6.7085 20.3779 6.81107 20.6396 7.0162C20.9014 7.22134 21.0921 7.50343 21.2117 7.86245L22.0706 10.6316C22.232 11.1412 22.2285 11.6142 22.0602 12.0506C21.892 12.4871 21.6401 12.8517 21.3046 13.1443ZM15.8464 12.5418C16.3016 12.5418 16.6437 12.4027 16.8729 12.1243C17.1021 11.846 17.1958 11.5471 17.1542 11.2277L16.6477 7.9585H14.6379V11.2502C14.6379 11.6006 14.7565 11.9035 14.9937 12.1589C15.231 12.4142 15.5152 12.5418 15.8464 12.5418ZM12.0964 12.5418C12.4799 12.5418 12.791 12.4142 13.0298 12.1589C13.2687 11.9035 13.3881 11.6006 13.3881 11.2502V7.9585H11.3783L10.8721 11.2597C10.8271 11.5557 10.92 11.8434 11.1508 12.1229C11.3817 12.4022 11.6969 12.5418 12.0964 12.5418ZM8.38811 12.5418C8.69686 12.5418 8.96235 12.4342 9.18457 12.2189C9.4068 12.0036 9.54409 11.7331 9.59645 11.4072L10.0867 7.9585H8.31749C8.22666 7.9585 8.15457 7.9785 8.10124 8.0185C8.04777 8.05864 8.0077 8.11877 7.98103 8.19891L7.17957 10.9104C7.06957 11.2683 7.12145 11.6297 7.3352 11.9945C7.54881 12.3594 7.89978 12.5418 8.38811 12.5418ZM19.6381 12.5418C20.0889 12.5418 20.434 12.3647 20.6733 12.0106C20.9126 11.6564 20.9703 11.2897 20.8464 10.9104L20.0033 8.18287C19.9767 8.10273 19.9367 8.0453 19.8833 8.01058C19.8299 7.97586 19.7577 7.9585 19.6669 7.9585H17.9394L18.4296 11.4072C18.4819 11.7331 18.6192 12.0036 18.8414 12.2189C19.0637 12.4342 19.3292 12.5418 19.6381 12.5418ZM8.2277 20.0418H19.7983C19.873 20.0418 19.9344 20.0178 19.9825 19.9697C20.0307 19.9217 20.0548 19.8602 20.0548 19.7854V13.7181C19.9639 13.7513 19.888 13.7718 19.8271 13.7797C19.7662 13.7878 19.7033 13.7918 19.6381 13.7918C19.2631 13.7918 18.9333 13.724 18.6485 13.5883C18.3638 13.4526 18.0878 13.2352 17.8206 12.936C17.5867 13.1967 17.3101 13.4045 16.9906 13.5595C16.6712 13.7144 16.3069 13.7918 15.8977 13.7918C15.5441 13.7918 15.2108 13.7184 14.8977 13.5714C14.5846 13.4246 14.2898 13.2128 14.0131 12.936C13.7556 13.2128 13.4639 13.4246 13.1381 13.5714C12.8121 13.7184 12.482 13.7918 12.1477 13.7918C11.7716 13.7918 11.419 13.7237 11.09 13.5875C10.761 13.4512 10.4714 13.2341 10.2214 12.936C9.87089 13.2864 9.54791 13.5167 9.25249 13.6268C8.95721 13.7368 8.66909 13.7918 8.38811 13.7918C8.32284 13.7918 8.25548 13.7878 8.18603 13.7797C8.11659 13.7718 8.04499 13.7513 7.97124 13.7181V19.7854C7.97124 19.8602 7.99534 19.9217 8.04353 19.9697C8.09159 20.0178 8.15298 20.0418 8.2277 20.0418Z" fill="white"/>
</svg>
