<svg width="16" height="16" viewBox="0 0 16 16" fill="none" xmlns="http://www.w3.org/2000/svg">
<g clip-path="url(#clip0_780_1924)">
<path d="M10.3489 10.7178L10.9683 10.0984L8.43359 7.56377V3.99977H7.56693V7.93561L10.3489 10.7178ZM8.00143 14.0664C7.16576 14.0664 6.38021 13.9086 5.64476 13.5928C4.90943 13.277 4.26504 12.8425 3.71159 12.2893C3.15815 11.7361 2.72343 11.0911 2.40743 10.3544C2.09154 9.61788 1.93359 8.83083 1.93359 7.99327C1.93359 7.15572 2.09148 6.36822 2.40726 5.63077C2.72304 4.89333 3.15754 4.25066 3.71076 3.70277C4.26398 3.15488 4.90893 2.72294 5.64559 2.40694C6.38215 2.09105 7.16921 1.93311 8.00676 1.93311C8.84432 1.93311 9.63182 2.09233 10.3693 2.41077C11.1068 2.72922 11.7484 3.16138 12.2939 3.70727C12.8395 4.25316 13.2714 4.89511 13.5896 5.63311C13.9078 6.37111 14.0669 7.15961 14.0669 7.99861C14.0669 8.83427 13.909 9.61983 13.5933 10.3553C13.2775 11.0906 12.8458 11.735 12.2981 12.2884C11.7504 12.8419 11.1073 13.2766 10.3688 13.5926C9.63021 13.9085 8.84109 14.0664 8.00143 14.0664ZM8.00826 13.1998C9.44682 13.1998 10.6718 12.6914 11.6833 11.6748C12.6946 10.6581 13.2003 9.43044 13.2003 7.99177C13.2003 6.55322 12.6946 5.32822 11.6833 4.31677C10.6718 3.30544 9.44682 2.79977 8.00826 2.79977C6.56959 2.79977 5.34193 3.30544 4.32526 4.31677C3.30859 5.32822 2.80026 6.55322 2.80026 7.99177C2.80026 9.43044 3.30859 10.6581 4.32526 11.6748C5.34193 12.6914 6.56959 13.1998 8.00826 13.1998Z" fill="#929292"/>
</g>
<defs>
<clipPath id="clip0_780_1924">
<rect width="16" height="16" fill="white"/>
</clipPath>
</defs>
</svg>
