<svg xmlns="http://www.w3.org/2000/svg" width="20" height="16" viewBox="0 0 20 16" fill="none">
  <path d="M15.9617 8.64991V7.34991H19.1772V8.64991H15.9617ZM16.929 15.2807L14.2867 13.4614L15.0482 12.3904L17.6905 14.2094L16.929 15.2807ZM14.9847 3.57116L14.2482 2.49991L16.8905 0.680664L17.6272 1.75191L14.9847 3.57116ZM3.05024 14.6807V9.97691H0.823242V6.02291H5.77149L10.7772 3.04991V12.9499L5.92149 9.97691H4.95024V14.6807H3.05024ZM9.47724 10.6097V5.34016L6.13674 7.32292H2.12324V8.67691H6.31174L9.47724 10.6097ZM12.3617 10.6942V5.30566C12.6874 5.6275 12.9367 6.02908 13.1097 6.51041C13.2829 6.99191 13.3695 7.48841 13.3695 7.99991C13.3695 8.51141 13.2829 9.00791 13.1097 9.48941C12.9367 9.97075 12.6874 10.3723 12.3617 10.6942Z" fill="#F97C69"/>
</svg>