<svg width="147" height="24" viewBox="0 0 147 24" fill="none" xmlns="http://www.w3.org/2000/svg">
<g clip-path="url(#clip0_1445_4105)">
<path d="M11.0538 12.0001L15.6538 16.6001L14.6001 17.6538L8.94631 12.0001L14.6001 6.34631L15.6538 7.40006L11.0538 12.0001Z" fill="#929292"/>
</g>
<path d="M55.6 18.93H47.28L46.64 22.05H39.68L40.32 18.93H32L33.04 14.13H56.64L55.6 18.93ZM56.14 13.17H34L36.44 1.72998H42.62L42.26 3.40997H52L52.36 1.72998H58.6L56.14 13.17ZM41.16 8.60997H50.88L51.06 7.72998H41.36L41.16 8.60997Z" fill="#F7634E"/>
<path d="M82.3402 16.65L81.2202 22.05H57.2202L58.3602 16.65H82.3402ZM77.6602 1.75L82.9002 13.41H74.2602L72.1402 7.97L67.7402 13.41H59.1002L69.2602 1.75H77.6602Z" fill="#F7634E"/>
<path d="M102.68 22.3299C91.7601 22.3299 91.1401 21.6099 92.0401 17.3099C92.9401 13.0099 93.9001 12.3099 104.8 12.3099C115.7 12.3099 116.34 13.0299 115.42 17.3099C114.5 21.5899 113.58 22.3299 102.68 22.3299ZM100 11.4099H92.8201L98.8201 1.66992H107.7L109.54 11.4099H102.34L101.8 8.36993L100 11.4099ZM104 16.5499C99.3601 16.5499 99.2401 16.6699 99.1001 17.2299C98.9601 17.7899 99.1001 17.9299 103.68 17.9299C108.26 17.9299 108.44 17.8099 108.56 17.2299C108.68 16.6499 108.52 16.6299 104 16.6299V16.5499ZM119.86 4.80992L118.78 9.84993H117L116.66 11.4099H109.6L111.6 1.66992H118.56L118 4.88992L119.86 4.80992Z" fill="#F7634E"/>
<path d="M132.873 7.63H134.993L136.233 1.75H141.273L136.993 22.05H131.953L133.953 12.67H132.473L131.673 22.05H126.053L127.533 9.59L123.833 22.05H118.193L124.993 1.75H133.393L132.873 7.63ZM142.733 22.05H137.673L141.953 1.75H146.993L142.733 22.05Z" fill="#F7634E"/>
<defs>
<clipPath id="clip0_1445_4105">
<rect width="24" height="24" fill="white"/>
</clipPath>
</defs>
</svg>
