<svg width="120" height="21" viewBox="0 0 120 21" fill="none" xmlns="http://www.w3.org/2000/svg">
<path d="M23.6 17.2599H15.28L14.64 20.3799H7.68L8.32 17.2599H0L1.04 12.4599H24.64L23.6 17.2599ZM24.14 11.4999H2L4.44 0.0599365H10.62L10.26 1.73993H20L20.36 0.0599365H26.6L24.14 11.4999ZM9.16 6.93993H18.88L19.06 6.05994H9.36L9.16 6.93993Z" fill="#F7634E"/>
<path d="M50.3402 14.9799L49.2202 20.3799H25.2202L26.3602 14.9799H50.3402ZM45.6602 0.0799255L50.9002 11.7399H42.2602L40.1402 6.29993L35.7402 11.7399H27.1002L37.2602 0.0799255H45.6602Z" fill="#F7634E"/>
<path d="M70.6801 20.6599C59.7601 20.6599 59.1401 19.9399 60.0401 15.6399C60.9401 11.3399 61.9001 10.6399 72.8001 10.6399C83.7001 10.6399 84.3401 11.3599 83.4201 15.6399C82.5001 19.9199 81.5801 20.6599 70.6801 20.6599ZM68.0001 9.73988H60.8201L66.8201 -0.0001297H75.7001L77.5401 9.73988H70.3401L69.8001 6.69988L68.0001 9.73988ZM72.0001 14.8799C67.3601 14.8799 67.2401 14.9999 67.1001 15.5599C66.9601 16.1199 67.1001 16.2599 71.6801 16.2599C76.2601 16.2599 76.4401 16.1399 76.5601 15.5599C76.6801 14.9799 76.5201 14.9599 72.0001 14.9599V14.8799ZM87.8601 3.13987L86.7801 8.17988H85.0001L84.6601 9.73988H77.6001L79.6001 -0.0001297H86.5601L86.0001 3.21987L87.8601 3.13987Z" fill="#F7634E"/>
<path d="M100.873 5.95993H102.993L104.233 0.0799255H109.273L104.993 20.3799H99.9534L101.953 10.9999H100.473L99.6734 20.3799H94.0534L95.5334 7.91992L91.8334 20.3799H86.1934L92.9934 0.0799255H101.393L100.873 5.95993ZM110.733 20.3799H105.673L109.953 0.0799255H114.993L110.733 20.3799Z" fill="#F7634E"/>
</svg>
