<svg width="112" height="24" viewBox="0 0 112 24" fill="none" xmlns="http://www.w3.org/2000/svg">
<g clip-path="url(#clip0_1299_5717)">
<path d="M11.0543 12.0001L15.6543 16.6001L14.6005 17.6538L8.9468 12.0001L14.6005 6.34631L15.6543 7.40006L11.0543 12.0001Z" fill="#929292"/>
</g>
<path d="M38.74 7.23007H33.34L34.48 1.83008H46.94L46 6.43008L39.04 22.1701H32L38.74 7.23007ZM54.16 22.1301H49.12L50.76 14.4301H50L48.36 22.1301H43.38L47.66 1.83008H52.7L51.1 9.39008H51.82L53.42 1.83008H58.46L54.16 22.1301Z" fill="#F7634E"/>
<path d="M58.833 12.5701H82.093L80.793 18.5701H65.213L65.033 19.2901H80.873L80.293 22.1101H56.793L58.113 15.8901H73.693L73.833 15.2101H58.253L58.833 12.5701ZM61.073 1.87012H68.033L67.773 3.21011H69.453L69.713 1.87012H76.593L74.593 11.6101H58.993L61.073 1.87012ZM66.713 8.1301H68.393L68.713 6.61011H67.033L66.713 8.1301ZM85.513 4.75009L84.433 9.7901H82.593L82.213 11.6101H75.333L77.333 1.87012H84.293L83.693 4.75009H85.513Z" fill="#F7634E"/>
<path d="M102.908 7.23007H100.168L99.9677 22.1301H93.3477L93.7277 13.5101L90.4677 22.1301H83.8477L89.8477 7.23007H87.2277L88.3477 1.83008H104.048L102.908 7.23007ZM111.788 9.43008L110.628 14.8301H108.868L107.328 22.1301H100.368L104.668 1.83008H111.628L110.008 9.43008H111.788Z" fill="#F7634E"/>
<defs>
<clipPath id="clip0_1299_5717">
<rect width="24" height="24" fill="white"/>
</clipPath>
</defs>
</svg>
