<svg width="120" height="20" viewBox="0 0 120 20" fill="none" xmlns="http://www.w3.org/2000/svg">
<path d="M6.74 5.39999H1.34L2.48 0H14.94L14 4.60001L7.04 20.34H0L6.74 5.39999ZM22.16 20.3H17.12L18.76 12.6H18L16.36 20.3H11.38L15.66 0H20.7L19.1 7.56H19.82L21.42 0H26.46L22.16 20.3Z" fill="#F7634E"/>
<path d="M26.8335 10.7398H50.0935L48.7935 16.7398H33.2135L33.0335 17.4598H48.8735L48.2935 20.2799H24.7935L26.1135 14.0599H41.6935L41.8335 13.3799H26.2535L26.8335 10.7398ZM29.0735 0.039866H36.0335L35.7735 1.37986H37.4535L37.7135 0.039866H44.5935L42.5935 9.77986H26.9935L29.0735 0.039866ZM34.7135 6.29985H36.3935L36.7135 4.77986H35.0335L34.7135 6.29985ZM53.5135 2.91984L52.4335 7.95985H50.5935L50.2135 9.77986H43.3335L45.3335 0.039866H52.2935L51.6935 2.91984H53.5135Z" fill="#F7634E"/>
<path d="M70.9067 5.39983H68.1667L67.9667 20.2998H61.3467L61.7267 11.6798L58.4667 20.2998H51.8467L57.8467 5.39983H55.2267L56.3467 -0.00016284H72.0467L70.9067 5.39983ZM79.7867 7.59984L78.6267 12.9998H76.8667L75.3267 20.2998H68.3667L72.6667 -0.00016284H79.6267L78.0067 7.59984H79.7867Z" fill="#F7634E"/>
</svg>
