<svg width="120" height="21" viewBox="0 0 120 21" fill="none" xmlns="http://www.w3.org/2000/svg">
<path d="M10.7783 20.34C0.338349 20.34 -0.541651 19.8 0.198349 16.34C0.938349 12.88 2.07835 12.34 12.4983 12.34C22.9184 12.34 23.8183 12.88 23.0783 16.34C22.3383 19.8 21.2183 20.34 10.7783 20.34ZM24.4383 11.7H0.838349L1.59835 8.16H7.03835L7.69835 5H14.6583L13.9983 8.16H16.4383L18.2583 3.8H3.23835L3.99835 0H26.2183L25.5983 2.96L23.3783 8.16H25.1983L24.4383 11.7ZM11.7583 15.7C6.89835 15.7 7.25835 15.7 7.15835 16.26C7.05835 16.82 6.65835 16.8 11.5183 16.8C16.3783 16.8 15.9983 16.8 16.1183 16.28C16.2383 15.76 16.6383 15.72 11.7583 15.72V15.7Z" fill="#F7634E"/>
<path d="M43.6586 5.39985H40.9186L40.6986 20.2998H33.9986L34.3786 11.6798L31.1986 20.2998H24.5986L30.5986 5.39985H27.9986L29.1386 -0.000152588H44.8186L43.6586 5.39985ZM48.6386 20.2998H41.6786L45.9986 -0.000152588H52.9586L48.6386 20.2998Z" fill="#F7634E"/>
</svg>
