<svg width="120" height="21" viewBox="0 0 120 21" fill="none" xmlns="http://www.w3.org/2000/svg">
<path d="M10.7803 20.3399C0.340302 20.3399 -0.539698 19.7799 0.200302 16.3399C0.940302 12.8999 2.0803 12.3399 12.5003 12.3399C22.9203 12.3399 23.8203 12.8999 23.0803 16.3399C22.3403 19.7799 21.2203 20.3399 10.7803 20.3399ZM24.4403 11.6999H0.840302L1.6003 8.15986H7.0403L7.7003 4.99986H14.6603L14.0003 8.15986H16.4403L18.2603 3.79986H3.2403L4.0003 -0.000137329H26.2203L25.6003 2.95986L23.3803 8.15986H25.2003L24.4403 11.6999ZM11.7603 15.6999C6.9003 15.6999 7.2603 15.6999 7.1603 16.2599C7.0603 16.8199 6.6603 16.8199 11.5203 16.8199C16.3803 16.8199 16.0003 16.7399 16.1203 16.2799C16.2403 15.8199 16.6403 15.7199 11.7603 15.7199V15.6999Z" fill="#F7634E"/>
<path d="M43.6606 5.39969H40.9206L40.7006 20.2997H34.0006L34.3806 11.6797L31.2006 20.2997H24.6006L30.6006 5.39969H28.0006L29.1006 -0.000305176H44.7806L43.6606 5.39969ZM48.6406 20.2997H41.6806L46.0006 -0.000305176H52.9606L48.6406 20.2997Z" fill="#F7634E"/>
<path d="M70.3406 20.5797C59.4406 20.5797 58.8006 19.8597 59.7206 15.5597C60.6406 11.2597 61.5606 10.5597 72.4806 10.5597C83.4006 10.5597 84.0206 11.2797 83.0806 15.5597C82.1406 19.8397 81.2606 20.5797 70.3406 20.5797ZM67.6606 9.73969H60.4806L66.4806 -0.000305176H75.4006L77.2606 9.73969H70.0006L69.4406 6.69969L67.6606 9.73969ZM71.6606 14.8797C67.0406 14.8797 66.9206 14.9997 66.7806 15.5597C66.6406 16.1197 66.7806 16.2597 71.3606 16.2597C75.9406 16.2597 76.1006 16.1397 76.2206 15.5597C76.3406 14.9797 76.2006 14.8797 71.5606 14.8797H71.6606ZM87.5206 3.13969L86.4406 8.1797H84.6606L84.3406 9.73969H77.2806L79.2806 -0.000305176H86.2406L85.5806 3.13969H87.5206Z" fill="#F7634E"/>
<path d="M100.534 5.87969H102.634L103.894 -0.000305176H108.934L104.634 20.2997H99.654L101.654 10.9197H100.194L99.414 20.2997H93.654L95.154 7.83969L91.454 20.2997H85.854L92.634 -0.000305176H101.034L100.534 5.87969ZM110.394 20.2997H105.354L109.654 -0.000305176H114.694L110.394 20.2997Z" fill="#F7634E"/>
</svg>
