<svg width="120" height="22" viewBox="0 0 120 22" fill="none" xmlns="http://www.w3.org/2000/svg">
<path d="M10.7803 21.0599C0.340302 21.0599 -0.539698 20.4999 0.200302 17.0599C0.940302 13.6199 2.0803 13.0599 12.5003 13.0599C22.9203 13.0599 23.8203 13.6199 23.0803 17.0599C22.3403 20.4999 21.2203 21.0599 10.7803 21.0599ZM16.9803 8.35987L16.8203 9.13987H25.1403L24.4803 12.2999H0.880302L1.5403 9.13987H9.8603L10.0403 8.35987C4.2003 8.11987 3.6803 7.21987 4.1803 4.85987V4.53986H2.9803L3.7003 1.19987H11.5003L11.7603 -0.000144958H18.7203L18.4603 1.19987H26.3403L25.6203 4.53986H24.3603C24.3603 4.65986 24.3603 4.75987 24.3603 4.85987C23.8203 7.21987 22.9203 8.11987 16.9803 8.35987ZM11.7603 16.3599C6.9003 16.3599 7.2603 16.3599 7.1603 16.9399C7.0603 17.5199 6.6603 17.4999 11.5203 17.4999C16.3803 17.4999 16.0403 17.3999 16.1203 16.9399C16.2003 16.4799 16.6403 16.4199 11.7603 16.4199V16.3599ZM14.4003 4.07987C11.1403 4.07987 11.0203 4.21987 10.9003 4.79987C10.7803 5.37987 10.9003 5.49986 14.1203 5.49986C17.3403 5.49986 17.5003 5.35987 17.6203 4.79987C17.7403 4.23987 17.6603 4.13987 14.4003 4.13987V4.07987Z" fill="#F7634E"/>
<path d="M35.0404 13.0799H27.4404L30.0804 0.679901H36.3204L35.9604 2.35992H45.6604L46.0204 0.679901H52.2603L49.6203 13.0799H42.0004L41.4403 15.5999H50.0004L48.8604 20.9999H24.8604L25.9804 15.5999H34.5604L35.0404 13.0799ZM34.6404 8.53992H44.3404L44.6804 6.91992H34.9804L34.6404 8.53992Z" fill="#F7634E"/>
</svg>
