<svg width="120" height="21" viewBox="0 0 120 21" fill="none" xmlns="http://www.w3.org/2000/svg">
<path d="M10.7783 20.3799C0.338349 20.3799 -0.541651 19.8399 0.198349 16.3799C0.938349 12.9199 2.07835 12.3799 12.4983 12.3799C22.9184 12.3799 23.8183 12.9199 23.0783 16.3799C22.3383 19.8399 21.2183 20.3799 10.7783 20.3799ZM24.4383 11.7399H0.838349L1.59835 8.19985H7.03835L7.69835 5.03986H14.6583L13.9983 8.19985H16.4383L18.2583 3.83985H3.23835L4.03835 0.039856H26.2183L25.5983 2.99986L23.3783 8.19985H25.1983L24.4383 11.7399ZM11.7583 15.7399C6.89835 15.7399 7.25835 15.7399 7.15835 16.3199C7.05835 16.8999 6.65835 16.8598 11.5183 16.8598C16.3783 16.8598 16.0383 16.8599 16.1183 16.3199C16.1983 15.7799 16.6383 15.7399 11.7583 15.7399Z" fill="#F7634E"/>
<path d="M32.8784 14.9398H49.9984L48.8584 20.3398H24.8584L26.6184 11.7398H33.5784L32.8784 14.9398ZM49.9984 13.9798H43.0184L43.9984 9.25983H41.5184C40.1984 10.3598 38.0384 10.9398 34.2184 10.9398C27.2984 10.9398 26.6984 8.93983 27.4384 5.49983C28.1784 2.05983 29.6184 -0.000167847 36.5584 -0.000167847C40.3984 -0.000167847 42.3384 0.599829 43.1384 1.69983H45.6384L45.9784 0.0398331H52.9384L49.9984 13.9798ZM35.6384 4.37983C34.5984 4.37983 34.5784 4.73983 34.4184 5.49983C34.2584 6.25983 34.1584 6.53983 35.1784 6.53983C36.1984 6.53983 36.2984 6.15983 36.4584 5.49983C36.6184 4.83983 36.7184 4.37983 35.6184 4.37983H35.6384ZM43.2584 6.13983H44.6984L44.9984 4.81983H43.5584L43.4384 5.49983L43.2584 6.13983Z" fill="#F7634E"/>
</svg>
