<svg xmlns="http://www.w3.org/2000/svg" width="11" height="11" viewBox="0 0 11 11" fill="none">
  <g clip-path="url(#clip0_576_4710)">
    <path d="M1.92 3.47C1.75 3.63 1.6 3.77 1.43 3.89C1.11 3.57 0.41 3.01 0 2.75C1.01 2.13 1.95 1.07 2.46 0L4.17 0.5C4.05 0.74 3.93 0.97 3.79 1.2H10.81V2.72H9.74V3.97H11.24V5.52H9.74V6.76H11.06V8.31H0.53V6.76H1.92V5.52H0.32V3.97H1.92V3.47ZM0.18 10.73C0.68 10.23 1.2 9.28 1.46 8.4L3.16 8.81C2.91 9.75 2.42 10.74 1.86 11.4L0.17 10.73H0.18ZM3.45 3.97H4.04V2.72H3.45V3.97ZM3.45 6.75H4.04V5.51H3.45V6.75ZM5.27 8.69C5.43 9.43 5.57 10.41 5.58 11.01L3.86 11.26C3.86 10.66 3.78 9.65 3.64 8.88L5.26 8.69H5.27ZM6.07 3.97V2.72H5.47V3.97H6.07ZM5.47 5.52V6.76H6.07V5.52H5.47ZM7.64 8.66C7.93 9.38 8.22 10.33 8.31 10.94L6.56 11.28C6.5 10.68 6.25 9.7 6 8.94L7.64 8.66ZM8.13 2.72H7.51V3.97H8.13V2.72ZM8.13 5.51H7.51V6.75H8.13V5.51ZM10.02 8.35C10.54 9.09 11.2 10.11 11.5 10.8L9.7 11.39C9.46 10.73 8.85 9.66 8.35 8.87L10.03 8.35H10.02Z" fill="#EB6B43"/>
  </g>
  <defs>
    <clipPath id="clip0_576_4710">
      <rect width="11" height="11" fill="white"/>
    </clipPath>
  </defs>
</svg>