<svg xmlns="http://www.w3.org/2000/svg" width="25" height="24" viewBox="0 0 25 24" fill="none">
  <path d="M14.3539 13.6923C13.8654 12.8654 13.1492 12.3062 12.2052 12.0145C11.2612 11.7228 10.2857 11.577 9.27869 11.577C8.27486 11.577 7.29702 11.7228 6.34519 12.0145C5.39319 12.3062 4.67936 12.8654 4.20369 13.6923H14.3539ZM2.22119 15.1923C2.22119 13.5551 2.94427 12.2933 4.39044 11.4068C5.83661 10.5203 7.46602 10.077 9.27869 10.077C11.0915 10.077 12.721 10.5203 14.1672 11.4068C15.6134 12.2933 16.3364 13.5551 16.3364 15.1923H2.22119ZM2.22119 18.8463V17.3463H16.3364V18.8463H2.22119ZM18.3364 22.5V21H19.7364L21.1364 7.19226H11.8557L11.6634 5.69226H16.4712V1.69226H17.9709V5.69226H22.7787L21.2057 21.3193C21.162 21.6654 21.0108 21.9488 20.7519 22.1693C20.4929 22.3898 20.1904 22.5 19.8442 22.5H18.3364ZM3.02894 22.5C2.79994 22.5 2.60811 22.4226 2.45344 22.2678C2.29861 22.1129 2.22119 21.9211 2.22119 21.6923V21H16.3364V21.6923C16.3364 21.9211 16.259 22.1129 16.1042 22.2678C15.9494 22.4226 15.7575 22.5 15.5287 22.5H3.02894Z" fill="#C4C4C4"/>
</svg>