<svg xmlns="http://www.w3.org/2000/svg" width="28" height="28" viewBox="0 0 28 28" fill="none">
  <path d="M16.1627 15.9744C15.5928 15.0097 14.7571 14.3573 13.6558 14.017C12.5545 13.6767 11.4164 13.5066 10.2416 13.5066C9.07042 13.5066 7.92962 13.6767 6.81915 14.017C5.70848 14.3573 4.87567 15.0097 4.32073 15.9744H16.1627ZM2.00781 17.7244C2.00781 15.8143 2.85141 14.3422 4.5386 13.3079C6.2258 12.2737 8.12678 11.7566 10.2416 11.7566C12.3565 11.7566 14.2576 12.2737 15.9448 13.3079C17.632 14.3422 18.4756 15.8143 18.4756 17.7244H2.00781ZM2.00781 21.9874V20.2374H18.4756V21.9874H2.00781ZM20.8089 26.2501V24.5001H22.4423L24.0756 8.39103H13.2481L13.0238 6.64103H18.6328V1.97437H20.3825V6.64103H25.9916L24.1564 24.8725C24.1055 25.2764 23.929 25.607 23.627 25.8642C23.3249 26.1215 22.9718 26.2501 22.568 26.2501H20.8089ZM2.95019 26.2501C2.68302 26.2501 2.45922 26.1598 2.27877 25.9791C2.09813 25.7985 2.00781 25.5747 2.00781 25.3077V24.5001H18.4756V25.3077C18.4756 25.5747 18.3853 25.7985 18.2046 25.9791C18.024 26.1598 17.8002 26.2501 17.5332 26.2501H2.95019Z" fill="#C4C4C4"/>
</svg>