<svg xmlns="http://www.w3.org/2000/svg" width="24" height="24" viewBox="0 0 24 24" fill="none">
  <path d="M13.8539 13.6923C13.3654 12.8654 12.6492 12.3062 11.7052 12.0145C10.7612 11.7228 9.78569 11.577 8.77869 11.577C7.77486 11.577 6.79702 11.7228 5.84519 12.0145C4.89319 12.3062 4.17936 12.8654 3.70369 13.6923H13.8539ZM1.72119 15.1923C1.72119 13.5551 2.44427 12.2933 3.89044 11.4068C5.33661 10.5203 6.96602 10.077 8.77869 10.077C10.5915 10.077 12.221 10.5203 13.6672 11.4068C15.1134 12.2933 15.8364 13.5551 15.8364 15.1923H1.72119ZM1.72119 18.8463V17.3463H15.8364V18.8463H1.72119ZM17.8364 22.5V21H19.2364L20.6364 7.19226H11.3557L11.1634 5.69226H15.9712V1.69226H17.4709V5.69226H22.2787L20.7057 21.3193C20.662 21.6654 20.5108 21.9488 20.2519 22.1693C19.9929 22.3898 19.6904 22.5 19.3442 22.5H17.8364ZM2.52894 22.5C2.29994 22.5 2.10811 22.4226 1.95344 22.2678C1.79861 22.1129 1.72119 21.9211 1.72119 21.6923V21H15.8364V21.6923C15.8364 21.9211 15.759 22.1129 15.6042 22.2678C15.4494 22.4226 15.2575 22.5 15.0287 22.5H2.52894Z" fill="#F97C69"/>
</svg>