<svg xmlns="http://www.w3.org/2000/svg" width="28" height="28" viewBox="0 0 28 28" fill="none">
  <path d="M6.19254 23.9167C5.60318 23.9167 5.10433 23.7125 4.696 23.3042C4.28766 22.8959 4.0835 22.397 4.0835 21.8077V6.19242C4.0835 5.60305 4.28766 5.10421 4.696 4.69587C5.10433 4.28754 5.60318 4.08337 6.19254 4.08337H18.4201L23.9168 9.58012V21.8077C23.9168 22.397 23.7127 22.8959 23.3043 23.3042C22.896 23.7125 22.3971 23.9167 21.8078 23.9167H6.19254ZM6.19254 22.1667H21.8078C21.9126 22.1667 21.9986 22.1331 22.0659 22.0658C22.1332 21.9985 22.1668 21.9125 22.1668 21.8077V10.5H17.5002V5.83337H6.19254C6.08773 5.83337 6.00169 5.86701 5.93441 5.93429C5.86714 6.00157 5.8335 6.08761 5.8335 6.19242V21.8077C5.8335 21.9125 5.86714 21.9985 5.93441 22.0658C6.00169 22.1331 6.08773 22.1667 6.19254 22.1667ZM8.4585 19.25H19.5418V17.5H8.4585V19.25ZM8.4585 10.5H14.0002V8.75004H8.4585V10.5ZM8.4585 14.875H19.5418V13.125H8.4585V14.875Z" fill="#F97C69"/>
</svg>