<svg xmlns="http://www.w3.org/2000/svg" width="24" height="24" viewBox="0 0 24 24" fill="none">
  <path d="M2.79834 21.173L7.18284 8.904L15.0673 16.7885L2.79834 21.173ZM5.27134 18.7L12.3213 16.2L7.77134 11.65L5.27134 18.7ZM13.9828 12.7037L13.1443 11.8655L18.6288 6.38075C19.1302 5.87958 19.7366 5.629 20.4481 5.629C21.1596 5.629 21.766 5.87958 22.2673 6.38075L22.7518 6.8655L21.9328 7.70375L21.4481 7.21925C21.1763 6.94742 20.8462 6.8115 20.4578 6.8115C20.0693 6.8115 19.7392 6.94742 19.4673 7.21925L13.9828 12.7037ZM10.3288 9.05L9.49059 8.2115L10.0906 7.6115C10.3879 7.31417 10.5366 6.95392 10.5366 6.53075C10.5366 6.10775 10.3879 5.7475 10.0906 5.45L9.45959 4.81925L10.2981 3.98075L10.9288 4.6115C11.4622 5.14483 11.7288 5.78458 11.7288 6.53075C11.7288 7.27692 11.4622 7.91667 10.9288 8.45L10.3288 9.05ZM12.1558 10.877L11.3173 10.0385L14.8021 6.554C15.0738 6.28217 15.2096 5.952 15.2096 5.5635C15.2096 5.175 15.0738 4.84483 14.8021 4.573L13.3173 3.0885L14.1558 2.25L15.6403 3.73475C16.1482 4.24242 16.4021 4.852 16.4021 5.5635C16.4021 6.275 16.1482 6.88458 15.6403 7.39225L12.1558 10.877ZM15.8096 14.5308L14.9711 13.6923L16.1673 12.4963C16.707 11.9564 17.3583 11.6865 18.1211 11.6865C18.8839 11.6865 19.5353 11.9564 20.0751 12.4963L21.2711 13.6923L20.4326 14.5308L19.2366 13.3348C18.9328 13.0308 18.5609 12.8787 18.1211 12.8787C17.6814 12.8787 17.3097 13.0308 17.0058 13.3348L15.8096 14.5308Z" fill="#F97C69"/>
</svg>