<svg xmlns="http://www.w3.org/2000/svg" width="28" height="28" viewBox="0 0 28 28" fill="none">
  <path d="M3.26465 24.7018L8.3799 10.388L17.5785 19.5866L3.26465 24.7018ZM6.14982 21.8167L14.3748 18.9L9.06648 13.5917L6.14982 21.8167ZM16.3132 14.821L15.335 13.8431L21.7336 7.44421C22.3185 6.85951 23.0259 6.56717 23.856 6.56717C24.6861 6.56717 25.3936 6.85951 25.9785 7.44421L26.5437 8.00975L25.5882 8.98771L25.0227 8.42246C24.7056 8.10532 24.3205 7.94675 23.8674 7.94675C23.4141 7.94675 23.029 8.10532 22.7118 8.42246L16.3132 14.821ZM12.0502 10.5583L11.0723 9.58008L11.7723 8.88008C12.1192 8.5332 12.2926 8.1129 12.2926 7.61921C12.2926 7.12571 12.1192 6.70542 11.7723 6.35833L11.0361 5.62246L12.0144 4.64421L12.7502 5.38008C13.3725 6.00231 13.6836 6.74868 13.6836 7.61921C13.6836 8.48974 13.3725 9.23611 12.7502 9.85833L12.0502 10.5583ZM14.1817 12.6898L13.2035 11.7116L17.269 7.64633C17.586 7.32919 17.7444 6.944 17.7444 6.49075C17.7444 6.0375 17.586 5.65231 17.269 5.33517L15.5368 3.60325L16.5151 2.625L18.247 4.35721C18.8395 4.94949 19.1357 5.66067 19.1357 6.49075C19.1357 7.32083 18.8395 8.03201 18.247 8.62429L14.1817 12.6898ZM18.4444 16.9525L17.4662 15.9743L18.8618 14.579C19.4914 13.9492 20.2512 13.6343 21.1412 13.6343C22.0312 13.6343 22.7911 13.9492 23.4209 14.579L24.8162 15.9743L23.8379 16.9525L22.4426 15.5572C22.0881 15.2025 21.6543 15.0252 21.1412 15.0252C20.6282 15.0252 20.1945 15.2025 19.8401 15.5572L18.4444 16.9525Z" fill="#F97C69"/>
</svg>