<svg xmlns="http://www.w3.org/2000/svg" width="28" height="28" viewBox="0 0 28 28" fill="none">
  <path d="M14.0002 25.1733C13.4108 25.1733 12.9026 24.9691 12.4756 24.5608C12.0486 24.1524 11.8165 23.6536 11.7791 23.0642H16.2212C16.1839 23.6536 15.9517 24.1524 15.5247 24.5608C15.0977 24.9691 14.5895 25.1733 14.0002 25.1733ZM9.62516 21.4487V19.6987H18.3752V21.4487H9.62516ZM9.80454 18.0834C8.58265 17.3235 7.61538 16.3307 6.90275 15.1049C6.18991 13.8793 5.8335 12.5388 5.8335 11.0834C5.8335 8.80997 6.62625 6.8805 8.21175 5.295C9.79725 3.7095 11.7267 2.91675 14.0002 2.91675C16.2736 2.91675 18.2031 3.7095 19.7886 5.295C21.3741 6.8805 22.1668 8.80997 22.1668 11.0834C22.1668 12.5388 21.8104 13.8793 21.0976 15.1049C20.3849 16.3307 19.4177 17.3235 18.1958 18.0834H9.80454ZM10.3252 16.3334H17.6752C18.5502 15.7112 19.2259 14.9431 19.7022 14.0292C20.1786 13.1154 20.4168 12.1334 20.4168 11.0834C20.4168 9.29453 19.7946 7.77786 18.5502 6.53341C17.3057 5.28897 15.7891 4.66675 14.0002 4.66675C12.2113 4.66675 10.6946 5.28897 9.45016 6.53341C8.20572 7.77786 7.5835 9.29453 7.5835 11.0834C7.5835 12.1334 7.82169 13.1154 8.29808 14.0292C8.77447 14.9431 9.45016 15.7112 10.3252 16.3334Z" fill="#F97C69"/>
</svg>