<svg xmlns="http://www.w3.org/2000/svg" width="28" height="28" viewBox="0 0 28 28" fill="none">
  <path d="M6.19205 23.9167C5.60269 23.9167 5.10384 23.7125 4.69551 23.3042C4.28717 22.8959 4.08301 22.397 4.08301 21.8077V6.19242C4.08301 5.60305 4.28717 5.10421 4.69551 4.69587C5.10384 4.28754 5.60269 4.08337 6.19205 4.08337H18.4196L23.9163 9.58012V21.8077C23.9163 22.397 23.7122 22.8959 23.3038 23.3042C22.8955 23.7125 22.3967 23.9167 21.8073 23.9167H6.19205ZM6.19205 22.1667H21.8073C21.9121 22.1667 21.9981 22.1331 22.0654 22.0658C22.1327 21.9985 22.1663 21.9125 22.1663 21.8077V10.5H17.4997V5.83337H6.19205C6.08724 5.83337 6.0012 5.86701 5.93392 5.93429C5.86665 6.00157 5.83301 6.08761 5.83301 6.19242V21.8077C5.83301 21.9125 5.86665 21.9985 5.93392 22.0658C6.0012 22.1331 6.08724 22.1667 6.19205 22.1667ZM8.45801 19.25H19.5413V17.5H8.45801V19.25ZM8.45801 10.5H13.9997V8.75004H8.45801V10.5ZM8.45801 14.875H19.5413V13.125H8.45801V14.875Z" fill="#C4C4C4"/>
</svg>