<svg xmlns="http://www.w3.org/2000/svg" width="25" height="24" viewBox="0 0 25 24" fill="none">
  <path d="M3.29834 21.173L7.68284 8.904L15.5673 16.7885L3.29834 21.173ZM5.77134 18.7L12.8213 16.2L8.27134 11.65L5.77134 18.7ZM14.4828 12.7037L13.6443 11.8655L19.1288 6.38075C19.6302 5.87958 20.2366 5.629 20.9481 5.629C21.6596 5.629 22.266 5.87958 22.7673 6.38075L23.2518 6.8655L22.4328 7.70375L21.9481 7.21925C21.6763 6.94742 21.3462 6.8115 20.9578 6.8115C20.5693 6.8115 20.2392 6.94742 19.9673 7.21925L14.4828 12.7037ZM10.8288 9.05L9.99059 8.2115L10.5906 7.6115C10.8879 7.31417 11.0366 6.95392 11.0366 6.53075C11.0366 6.10775 10.8879 5.7475 10.5906 5.45L9.95959 4.81925L10.7981 3.98075L11.4288 4.6115C11.9622 5.14483 12.2288 5.78458 12.2288 6.53075C12.2288 7.27692 11.9622 7.91667 11.4288 8.45L10.8288 9.05ZM12.6558 10.877L11.8173 10.0385L15.3021 6.554C15.5738 6.28217 15.7096 5.952 15.7096 5.5635C15.7096 5.175 15.5738 4.84483 15.3021 4.573L13.8173 3.0885L14.6558 2.25L16.1403 3.73475C16.6482 4.24242 16.9021 4.852 16.9021 5.5635C16.9021 6.275 16.6482 6.88458 16.1403 7.39225L12.6558 10.877ZM16.3096 14.5308L15.4711 13.6923L16.6673 12.4963C17.207 11.9564 17.8583 11.6865 18.6211 11.6865C19.3839 11.6865 20.0353 11.9564 20.5751 12.4963L21.7711 13.6923L20.9326 14.5308L19.7366 13.3348C19.4328 13.0308 19.0609 12.8787 18.6211 12.8787C18.1814 12.8787 17.8097 13.0308 17.5058 13.3348L16.3096 14.5308Z" fill="#C4C4C4"/>
</svg>