<svg xmlns="http://www.w3.org/2000/svg" width="28" height="28" viewBox="0 0 28 28" fill="none">
  <path d="M3.26514 24.7018L8.38039 10.388L17.579 19.5866L3.26514 24.7018ZM6.1503 21.8167L14.3753 18.9L9.06697 13.5917L6.1503 21.8167ZM16.3137 14.821L15.3355 13.8431L21.7341 7.44421C22.3189 6.85951 23.0264 6.56717 23.8565 6.56717C24.6866 6.56717 25.3941 6.85951 25.979 7.44421L26.5442 8.00975L25.5887 8.98771L25.0232 8.42246C24.706 8.10532 24.3209 7.94675 23.8679 7.94675C23.4146 7.94675 23.0294 8.10532 22.7123 8.42246L16.3137 14.821ZM12.0507 10.5583L11.0728 9.58008L11.7728 8.88008C12.1197 8.5332 12.2931 8.1129 12.2931 7.61921C12.2931 7.12571 12.1197 6.70542 11.7728 6.35833L11.0366 5.62246L12.0148 4.64421L12.7507 5.38008C13.3729 6.00231 13.6841 6.74868 13.6841 7.61921C13.6841 8.48974 13.3729 9.23611 12.7507 9.85833L12.0507 10.5583ZM14.1822 12.6898L13.204 11.7116L17.2695 7.64633C17.5865 7.32919 17.7449 6.944 17.7449 6.49075C17.7449 6.0375 17.5865 5.65231 17.2695 5.33517L15.5373 3.60325L16.5156 2.625L18.2475 4.35721C18.8399 4.94949 19.1362 5.66067 19.1362 6.49075C19.1362 7.32083 18.8399 8.03201 18.2475 8.62429L14.1822 12.6898ZM18.4449 16.9525L17.4667 15.9743L18.8623 14.579C19.4919 13.9492 20.2517 13.6343 21.1417 13.6343C22.0317 13.6343 22.7915 13.9492 23.4213 14.579L24.8167 15.9743L23.8384 16.9525L22.4431 15.5572C22.0886 15.2025 21.6548 15.0252 21.1417 15.0252C20.6287 15.0252 20.195 15.2025 19.8406 15.5572L18.4449 16.9525Z" fill="#C4C4C4"/>
</svg>