<svg xmlns="http://www.w3.org/2000/svg" width="28" height="28" viewBox="0 0 28 28" fill="none">
  <path d="M13.9997 25.1733C13.4103 25.1733 12.9021 24.9691 12.4751 24.5608C12.0481 24.1524 11.816 23.6536 11.7786 23.0642H16.2207C16.1834 23.6536 15.9512 24.1524 15.5242 24.5608C15.0972 24.9691 14.589 25.1733 13.9997 25.1733ZM9.62467 21.4487V19.6987H18.3747V21.4487H9.62467ZM9.80405 18.0834C8.58216 17.3235 7.6149 16.3307 6.90226 15.1049C6.18942 13.8793 5.83301 12.5388 5.83301 11.0834C5.83301 8.80997 6.62576 6.8805 8.21126 5.295C9.79676 3.7095 11.7262 2.91675 13.9997 2.91675C16.2731 2.91675 18.2026 3.7095 19.7881 5.295C21.3736 6.8805 22.1663 8.80997 22.1663 11.0834C22.1663 12.5388 21.8099 13.8793 21.0971 15.1049C20.3845 16.3307 19.4172 17.3235 18.1953 18.0834H9.80405ZM10.3247 16.3334H17.6747C18.5497 15.7112 19.2254 14.9431 19.7018 14.0292C20.1781 13.1154 20.4163 12.1334 20.4163 11.0834C20.4163 9.29453 19.7941 7.77786 18.5497 6.53341C17.3052 5.28897 15.7886 4.66675 13.9997 4.66675C12.2108 4.66675 10.6941 5.28897 9.44967 6.53341C8.20523 7.77786 7.58301 9.29453 7.58301 11.0834C7.58301 12.1334 7.8212 13.1154 8.29759 14.0292C8.77398 14.9431 9.44967 15.7112 10.3247 16.3334Z" fill="#C4C4C4"/>
</svg>