<svg xmlns="http://www.w3.org/2000/svg" width="17" height="18" viewBox="0 0 17 18" fill="none">
  <path fill-rule="evenodd" clip-rule="evenodd" d="M13.5911 0.800049H2.97312C2.54976 0.800049 0.0164166 2.96557 0.000156209 2.97947H7.75825e-05V2.97954V11.2615H16.5642V2.97954V2.97947H16.5641C16.5478 2.96557 14.0145 0.800049 13.5911 0.800049ZM0 11.2616C0 12.8471 0.570417 13.8768 2.1236 14.9979C3.67679 16.119 6.08552 17.8001 8.28205 17.8001C10.3626 17.8001 12.443 16.2918 13.9769 15.1798C14.0623 15.1178 14.1461 15.0571 14.2281 14.9979C15.7813 13.8768 16.5641 12.8471 16.5641 11.2616L8.28205 11.2616H0ZM14.4234 6.54179C14.4234 6.95393 14.2633 7.60953 13.9726 8.36831C14.7551 9.64091 13.986 11.7964 12.1446 13.3415C11.6733 13.737 11.1747 14.0564 10.6751 14.2961C9.96196 14.6499 8.94947 14.9669 8.27039 14.9669C7.81155 14.9669 7.17562 14.8222 6.5777 14.6192C5.80406 14.3875 4.99646 13.954 4.25597 13.3327C2.42384 11.7953 1.65321 9.65372 2.4163 8.37872C2.12305 7.61552 1.96153 6.95581 1.96153 6.54179L1.96151 6.48228C1.9609 5.53552 1.95968 3.60524 3.20766 3.4264C3.74818 3.34893 4.5734 3.69696 5.4623 4.07184C6.38629 4.46152 7.37908 4.88022 8.19245 4.88022C8.91061 4.88022 9.81817 4.47162 10.6727 4.08689C11.4872 3.72017 12.2535 3.37516 12.7617 3.42635C14.2752 3.5788 14.4234 5.52252 14.4234 6.54179Z" fill="#4E4F58"/>
  <circle cx="6.08573" cy="7.69053" r="0.60355" fill="#4E4F58"/>
  <circle cx="10.5118" cy="7.69053" r="0.60355" fill="#4E4F58"/>
  <path d="M2.85742 5.09116C2.83291 5.00802 2.86453 4.91854 2.93583 4.86925C3.04326 4.79498 3.19189 4.84145 3.23788 4.96368L3.39176 5.37262C3.42308 5.45586 3.47441 5.53011 3.54122 5.58882L3.87262 5.88007C3.96909 5.96485 3.9602 6.11771 3.85456 6.19074C3.78181 6.24102 3.6845 6.23679 3.61639 6.18038L3.21544 5.8483C3.09919 5.75201 3.0143 5.62325 2.97161 5.47847L2.85742 5.09116Z" fill="#4E4F58"/>
  <path d="M13.6281 5.09104C13.6526 5.00795 13.621 4.9185 13.5497 4.86923C13.4424 4.79502 13.2939 4.84142 13.2479 4.96355L13.0938 5.37268C13.0625 5.45588 13.0112 5.53009 12.9444 5.58877L12.6129 5.88021C12.5165 5.96493 12.5253 6.11767 12.6309 6.19065C12.7036 6.24092 12.8009 6.23669 12.8689 6.1803L13.27 5.84805C13.3862 5.75182 13.471 5.62316 13.5137 5.47849L13.6281 5.09104Z" fill="#4E4F58"/>
  <path fill-rule="evenodd" clip-rule="evenodd" d="M8.70119 10.0506C9.02077 9.94103 9.386 9.74242 9.48531 9.54382C9.63365 9.24719 8.95411 9.09888 8.29881 9.09888C7.64351 9.09888 6.96399 9.24719 7.11229 9.54382C7.21158 9.74243 7.57686 9.94104 7.89646 10.0506V10.6107L6.9208 11.3759C6.79304 11.4761 6.7707 11.6609 6.8709 11.7887C6.9711 11.9164 7.15589 11.9388 7.28365 11.8386L8.27208 11.0634L9.26058 11.8387C9.38833 11.9389 9.57313 11.9166 9.67334 11.7889C9.77355 11.6611 9.75121 11.4763 9.62346 11.3761L8.70119 10.6527V10.0506Z" fill="#4E4F58"/>
</svg>