<svg xmlns="http://www.w3.org/2000/svg" width="17" height="17" viewBox="0 0 17 17" fill="none">
  <path d="M5.48875 13.6832C5.48875 13.7494 5.41265 13.8023 5.31671 13.8023C5.20753 13.8123 5.13143 13.7593 5.13143 13.6832C5.13143 13.6171 5.20753 13.5641 5.30347 13.5641C5.40273 13.5542 5.48875 13.6071 5.48875 13.6832ZM4.45982 13.5343C4.43666 13.6005 4.50283 13.6766 4.60208 13.6965C4.6881 13.7295 4.78735 13.6965 4.8072 13.6303C4.82706 13.5641 4.76419 13.488 4.66494 13.4582C4.57892 13.4351 4.48297 13.4682 4.45982 13.5343ZM5.92216 13.4781C5.82621 13.5013 5.76004 13.5641 5.76997 13.6402C5.77989 13.7064 5.86591 13.7494 5.96517 13.7262C6.06111 13.7031 6.12728 13.6402 6.11736 13.574C6.10743 13.5112 6.0181 13.4682 5.92216 13.4781ZM8.09913 0.800049C3.51029 0.800049 0 4.28387 0 8.87271C0 12.5418 2.30931 15.6815 5.60785 16.7866C6.03134 16.8627 6.18022 16.6013 6.18022 16.3862C6.18022 16.1811 6.17029 15.0496 6.17029 14.3548C6.17029 14.3548 3.85437 14.8511 3.36802 13.3689C3.36802 13.3689 2.99086 12.4062 2.44827 12.158C2.44827 12.158 1.69063 11.6386 2.5012 11.6485C2.5012 11.6485 3.32501 11.7147 3.77827 12.5021C4.50283 13.7792 5.71703 13.4119 6.19014 13.1936C6.26624 12.6642 6.48129 12.297 6.7195 12.0786C4.87007 11.8735 3.00409 11.6055 3.00409 8.42276C3.00409 7.51293 3.25553 7.05636 3.78489 6.47407C3.69887 6.25902 3.41765 5.37235 3.87091 4.22762C4.56238 4.01257 6.15375 5.12091 6.15375 5.12091C6.81544 4.93563 7.52677 4.83969 8.23147 4.83969C8.93617 4.83969 9.64749 4.93563 10.3092 5.12091C10.3092 5.12091 11.9006 4.00926 12.592 4.22762C13.0453 5.37566 12.7641 6.25902 12.6781 6.47407C13.2074 7.05967 13.5316 7.51624 13.5316 8.42276C13.5316 11.6154 11.5829 11.8702 9.73351 12.0786C10.0379 12.34 10.296 12.8363 10.296 13.6137C10.296 14.7287 10.286 16.1083 10.286 16.3796C10.286 16.5947 10.4382 16.856 10.8584 16.78C14.1669 15.6815 16.41 12.5418 16.41 8.87271C16.41 4.28387 12.688 0.800049 8.09913 0.800049ZM3.21583 12.211C3.17282 12.244 3.18275 12.3201 3.23899 12.383C3.29193 12.4359 3.36802 12.4591 3.41103 12.4161C3.45404 12.383 3.44412 12.3069 3.38787 12.244C3.33494 12.1911 3.25884 12.1679 3.21583 12.211ZM2.85852 11.943C2.83536 11.986 2.86844 12.0389 2.93461 12.072C2.98755 12.1051 3.05372 12.0952 3.07688 12.0488C3.10003 12.0058 3.06695 11.9529 3.00078 11.9198C2.93461 11.9 2.88168 11.9099 2.85852 11.943ZM3.93046 13.1208C3.87752 13.1638 3.89738 13.263 3.97347 13.3259C4.04957 13.402 4.14551 13.4119 4.18852 13.359C4.23153 13.316 4.21168 13.2167 4.14551 13.1539C4.07272 13.0778 3.97347 13.0678 3.93046 13.1208ZM3.5533 12.6344C3.50036 12.6675 3.50036 12.7535 3.5533 12.8296C3.60623 12.9057 3.69556 12.9388 3.73857 12.9057C3.7915 12.8627 3.7915 12.7767 3.73857 12.7006C3.69225 12.6245 3.60623 12.5914 3.5533 12.6344Z" fill="#4E4F58"/>
</svg>