<svg xmlns="http://www.w3.org/2000/svg" width="16" height="17" viewBox="0 0 16 17" fill="none">
  <path d="M8.00357 4.69785C5.7329 4.69785 3.90137 6.52938 3.90137 8.80005C3.90137 11.0707 5.7329 12.9022 8.00357 12.9022C10.2742 12.9022 12.1058 11.0707 12.1058 8.80005C12.1058 6.52938 10.2742 4.69785 8.00357 4.69785ZM8.00357 11.467C6.5362 11.467 5.33661 10.271 5.33661 8.80005C5.33661 7.32911 6.53263 6.13308 8.00357 6.13308C9.47451 6.13308 10.6705 7.32911 10.6705 8.80005C10.6705 10.271 9.47094 11.467 8.00357 11.467ZM13.2304 4.53005C13.2304 5.06201 12.802 5.48687 12.2736 5.48687C11.7416 5.48687 11.3167 5.05844 11.3167 4.53005C11.3167 4.00166 11.7452 3.57323 12.2736 3.57323C12.802 3.57323 13.2304 4.00166 13.2304 4.53005ZM15.9473 5.50115C15.8866 4.21944 15.5939 3.08411 14.6549 2.1487C13.7195 1.2133 12.5842 0.920544 11.3025 0.85628C9.98148 0.781305 6.02209 0.781305 4.7011 0.85628C3.42296 0.916974 2.28763 1.20973 1.34866 2.14513C0.409684 3.08054 0.120495 4.21587 0.0562312 5.49758C-0.0187437 6.81857 -0.0187437 10.778 0.0562312 12.0989C0.116925 13.3807 0.409684 14.516 1.34866 15.4514C2.28763 16.3868 3.41939 16.6796 4.7011 16.7438C6.02209 16.8188 9.98148 16.8188 11.3025 16.7438C12.5842 16.6831 13.7195 16.3904 14.6549 15.4514C15.5903 14.516 15.8831 13.3807 15.9473 12.0989C16.0223 10.778 16.0223 6.82214 15.9473 5.50115ZM14.2408 13.5163C13.9623 14.2161 13.4232 14.7552 12.7198 15.0372C11.6666 15.455 9.16747 15.3586 8.00357 15.3586C6.83967 15.3586 4.33694 15.4514 3.28729 15.0372C2.58753 14.7588 2.04842 14.2197 1.76637 13.5163C1.34866 12.4631 1.44505 9.96395 1.44505 8.80005C1.44505 7.63615 1.35223 5.13342 1.76637 4.08377C2.04485 3.38401 2.58396 2.8449 3.28729 2.56285C4.34051 2.14513 6.83967 2.24153 8.00357 2.24153C9.16747 2.24153 11.6702 2.1487 12.7198 2.56285C13.4196 2.84133 13.9587 3.38043 14.2408 4.08377C14.6585 5.13699 14.5621 7.63615 14.5621 8.80005C14.5621 9.96395 14.6585 12.4667 14.2408 13.5163Z" fill="#4E4F58"/>
</svg>