<svg width="28" height="30" viewBox="0 0 28 30" fill="none" xmlns="http://www.w3.org/2000/svg">
<path fill-rule="evenodd" clip-rule="evenodd" d="M22.9744 0.631653H5.02571C4.30982 0.631653 0.0247175 4.29479 0.000195252 4.31576H8.95827e-05V4.31585V18.3157H28V4.31585V4.31576H27.9999C27.9753 4.29479 23.6902 0.631653 22.9744 0.631653ZM0 18.3158C0 20.9959 0.96423 22.7365 3.58973 24.6316C6.21523 26.5267 10.2869 29.3684 13.9999 29.3684C17.5169 29.3684 21.0337 26.8188 23.6264 24.9391L23.6264 24.9391L23.6266 24.9389C23.7711 24.8342 23.9126 24.7316 24.0512 24.6316C26.6767 22.7365 27.9999 20.9959 27.9999 18.3158L13.9999 18.3158H0ZM24.3813 10.3374C24.3813 11.0341 24.1107 12.1423 23.6193 13.425C24.942 15.5762 23.6419 19.2199 20.5292 21.8317C19.7313 22.5012 18.8873 23.0417 18.0414 23.447C16.8361 24.0444 15.127 24.5792 13.9803 24.5792C13.2045 24.5792 12.1294 24.3345 11.1186 23.9912C9.81094 23.5995 8.44593 22.8669 7.19433 21.8167C4.09729 19.2179 2.79463 15.5977 4.08459 13.4425C3.58889 12.1524 3.31587 11.0372 3.31587 10.3374L3.31582 10.2368C3.31481 8.63637 3.31273 5.37343 5.42232 5.07111C6.33601 4.94017 7.73095 5.52847 9.23355 6.16217C10.7955 6.82089 12.4737 7.52866 13.8486 7.52866C15.0626 7.52866 16.5967 6.83795 18.0412 6.1876C19.418 5.56771 20.7134 4.98449 21.5725 5.07103C24.1308 5.32874 24.3813 8.61438 24.3813 10.3374Z" fill="#F7634E"/>
<circle cx="10.2873" cy="12.2793" r="1.02024" fill="#F7634E"/>
<circle cx="17.7691" cy="12.2793" r="1.02024" fill="#F7634E"/>
<path d="M4.83001 7.88542C4.78857 7.74488 4.84201 7.59362 4.96254 7.5103C5.14415 7.38476 5.39538 7.46331 5.47313 7.66994L5.73324 8.3612C5.78619 8.50191 5.87296 8.62743 5.98588 8.72667L6.54609 9.21899C6.70916 9.3623 6.69414 9.6207 6.51556 9.74414C6.39259 9.82915 6.22809 9.822 6.11295 9.72664L5.4352 9.16529C5.23869 9.00253 5.09518 8.78487 5.02303 8.54013L4.83001 7.88542Z" fill="#F7634E"/>
<path d="M23.0367 7.88519C23.0781 7.74473 23.0247 7.59353 22.9043 7.51024C22.7228 7.38478 22.4718 7.46323 22.394 7.66968L22.1336 8.36127C22.0806 8.5019 21.9939 8.62735 21.881 8.72655L21.3206 9.21919C21.1576 9.3624 21.1727 9.62059 21.3511 9.74396C21.474 9.82893 21.6384 9.82179 21.7535 9.72646L22.4314 9.16483C22.6278 9.00217 22.7712 8.78468 22.8434 8.54012L23.0367 7.88519Z" fill="#F7634E"/>
<path fill-rule="evenodd" clip-rule="evenodd" d="M14.7084 16.2687C15.2487 16.0835 15.8661 15.7478 16.034 15.412C16.2847 14.9106 15.1361 14.6599 14.0283 14.6599C12.9206 14.6599 11.772 14.9106 12.0226 15.412C12.1905 15.7478 12.8079 16.0835 13.3481 16.2687V17.2154L11.6989 18.5089C11.4829 18.6783 11.4452 18.9906 11.6145 19.2066C11.7839 19.4226 12.0963 19.4603 12.3123 19.291L13.9831 17.9805L15.6541 19.2912C15.8701 19.4606 16.1824 19.4229 16.3518 19.2069C16.5212 18.991 16.4835 18.6786 16.2675 18.5092L14.7084 17.2863V16.2687Z" fill="#F7634E"/>
</svg>
