<svg xmlns="http://www.w3.org/2000/svg" width="28" height="28" viewBox="0 0 28 28" fill="none">
  <g clip-path="url(#clip0_1299_25)">
    <path d="M27.9929 8.16538C27.9266 6.61439 27.4319 5.11208 26.5637 3.82514C25.6955 2.53819 24.4878 1.51694 23.0744 0.874677C21.6611 0.232417 20.0975 -0.00573581 18.557 0.186643C17.0166 0.379021 15.5596 0.994409 14.3476 1.96453C14.2487 2.04267 14.1264 2.08518 14.0003 2.08518C13.8743 2.08518 13.7519 2.04267 13.653 1.96453C12.072 0.697356 10.0862 0.0442081 8.06164 0.125407C6.03706 0.206605 4.11001 1.01668 2.63549 2.4064C1.16097 3.79612 0.238312 5.67187 0.0374833 7.6881C-0.163346 9.70434 0.371184 11.7252 1.5426 13.3785C1.60806 13.4725 1.64316 13.5842 1.64316 13.6987C1.64316 13.8132 1.60806 13.925 1.5426 14.0189C0.374173 15.6724 -0.157929 17.6921 0.0441731 19.7067C0.246275 21.7212 1.16899 23.595 2.64258 24.9834C4.11618 26.3718 6.04155 27.1814 8.06452 27.2633C10.0875 27.3452 12.072 26.6939 13.653 25.4292C13.7519 25.351 13.8743 25.3085 14.0003 25.3085C14.1264 25.3085 14.2487 25.351 14.3476 25.4292C15.9287 26.6964 17.9144 27.3495 19.939 27.2683C21.9636 27.1871 23.8906 26.377 25.3652 24.9873C26.8397 23.5976 27.7623 21.7218 27.9632 19.7056C28.164 17.6894 27.6295 15.6685 26.458 14.0152C26.3926 13.9213 26.3575 13.8095 26.3575 13.695C26.3575 13.5805 26.3926 13.4687 26.458 13.3748C27.5349 11.8574 28.075 10.0242 27.9929 8.16538Z" fill="#F97C69"/>
    <path d="M21.7447 8.53502C21.9744 8.26541 22.1454 7.95084 22.2466 7.61141C22.3479 7.27198 22.3773 6.91516 22.3328 6.56374C22.2884 6.21232 22.1712 5.87404 21.9886 5.5705C21.806 5.26697 21.5621 5.00486 21.2725 4.80091C20.9829 4.59697 20.6539 4.45568 20.3066 4.38608C19.9593 4.31648 19.6013 4.32009 19.2554 4.39668C18.9096 4.47327 18.5836 4.62116 18.2981 4.8309C18.0127 5.04064 17.7741 5.30762 17.5977 5.61478C17.5303 5.73331 17.4258 5.8264 17.3003 5.87971C17.1748 5.93302 17.0352 5.94359 16.9031 5.90979C15.9544 5.6772 14.9802 5.5643 14.0034 5.5737C13.0077 5.5661 12.0151 5.68531 11.0496 5.92846C10.9161 5.96318 10.7749 5.95226 10.6483 5.89745C10.5218 5.84264 10.4172 5.74708 10.3512 5.62598C10.1751 5.31645 9.93591 5.04731 9.64926 4.83595C9.3626 4.62458 9.0348 4.47569 8.68702 4.39889C8.33924 4.32209 7.97922 4.31909 7.63021 4.39008C7.2812 4.46107 6.95096 4.60447 6.66081 4.81102C6.37067 5.01757 6.12707 5.28268 5.94576 5.58923C5.76444 5.89578 5.64944 6.23695 5.60817 6.59071C5.56691 6.94447 5.6003 7.30295 5.70619 7.643C5.81208 7.98305 5.98812 8.29711 6.22293 8.5649C6.31447 8.66468 6.37094 8.79162 6.38374 8.92642C6.39655 9.06123 6.365 9.19653 6.29388 9.31176C5.46113 10.6561 5.04102 12.2955 5.04102 14.1141C5.04102 19.0378 8.75667 23.056 13.9455 23.0597C18.746 23.0597 22.9695 19.0378 22.9695 14.1141C22.9695 12.2806 22.5345 10.6262 21.6868 9.27442C21.6163 9.16112 21.5839 9.02825 21.5943 8.89522C21.6047 8.76219 21.6574 8.63598 21.7447 8.53502Z" fill="white"/>
    <path d="M14.0634 16.6535H13.8767C13.578 16.6548 13.2859 16.5665 13.0379 16.4001C12.79 16.2337 12.5976 15.9968 12.4856 15.7199C12.4159 15.5494 12.3894 15.3644 12.4083 15.1811C12.4272 14.9979 12.4909 14.8222 12.594 14.6695C12.697 14.5168 12.8361 14.3919 12.9989 14.3057C13.1617 14.2196 13.3433 14.175 13.5275 14.1758H14.4125C14.5967 14.175 14.7783 14.2196 14.9411 14.3057C15.104 14.3919 15.243 14.5168 15.3461 14.6695C15.4491 14.8222 15.5129 14.9979 15.5318 15.1811C15.5507 15.3644 15.5241 15.5494 15.4544 15.7199C15.3424 15.9968 15.15 16.2337 14.9021 16.4001C14.6541 16.5665 14.362 16.6548 14.0634 16.6535Z" fill="#F97C69"/>
    <path d="M12.8298 19.9751C12.5503 19.9774 12.2793 19.8793 12.0661 19.6988C11.9025 19.5584 11.7791 19.377 11.7086 19.1733C11.6381 18.9696 11.6229 18.7508 11.6646 18.5393C11.6743 18.4897 11.7032 18.4461 11.7451 18.4179C11.7869 18.3897 11.8383 18.3793 11.8878 18.389C11.9373 18.3986 11.9809 18.4275 12.0091 18.4694C12.0373 18.5112 12.0477 18.5626 12.0381 18.6121C12.0107 18.7575 12.0227 18.9077 12.073 19.0469C12.1232 19.1861 12.2098 19.3093 12.3238 19.4038C12.4476 19.5026 12.5966 19.565 12.7539 19.5838C12.9113 19.6026 13.0707 19.5771 13.2144 19.5102C13.3891 19.42 13.531 19.2769 13.6196 19.1013C13.7239 18.8995 13.7814 18.6767 13.7876 18.4496C13.7727 15.5723 13.7727 15.5723 13.9743 15.5481C14.0227 15.544 14.071 15.5574 14.1103 15.5859C14.1497 15.6143 14.1776 15.6558 14.1891 15.703C14.1981 15.7424 14.1942 15.7837 14.1778 15.8207C14.1592 16.1063 14.1592 17.5515 14.1629 18.4496C14.1583 18.7384 14.0867 19.0222 13.9538 19.2787C13.825 19.5296 13.6197 19.733 13.3675 19.8593C13.1987 19.9362 13.0152 19.9757 12.8298 19.9751Z" fill="#F97C69"/>
    <path d="M12.8289 20.0725C12.5262 20.0741 12.2328 19.9675 12.0018 19.7718C11.8264 19.6201 11.6945 19.4245 11.6197 19.205C11.5449 18.9854 11.5298 18.75 11.5761 18.5227C11.5904 18.4472 11.6342 18.3805 11.6977 18.3372C11.7613 18.294 11.8394 18.2778 11.9149 18.2921C11.9905 18.3065 12.0572 18.3503 12.1004 18.4138C12.1437 18.4774 12.1599 18.5555 12.1455 18.631C12.12 18.7584 12.1286 18.8903 12.1706 19.0133C12.2126 19.1363 12.2864 19.246 12.3845 19.3312C12.4938 19.4185 12.6255 19.4734 12.7645 19.4896C12.9034 19.5058 13.0442 19.4826 13.1706 19.4227C13.3281 19.34 13.455 19.2091 13.5328 19.0493C13.6283 18.8621 13.6812 18.6562 13.6878 18.4462C13.6729 15.483 13.6729 15.483 13.9698 15.4475C14.0417 15.441 14.1135 15.4607 14.1722 15.5029C14.2308 15.545 14.2723 15.6069 14.289 15.6772C14.304 15.7296 14.304 15.7852 14.289 15.8377C14.2704 16.1533 14.2704 17.5947 14.2741 18.4518C14.269 18.7575 14.193 19.058 14.0519 19.3293C13.9131 19.5974 13.6928 19.8145 13.4227 19.9492C13.2361 20.0329 13.0334 20.075 12.8289 20.0725ZM11.8524 18.4798C11.8301 18.4799 11.8086 18.4877 11.7915 18.5021C11.7745 18.5164 11.763 18.5363 11.759 18.5582C11.7213 18.753 11.7359 18.9544 11.8015 19.1418C11.8671 19.3291 11.9814 19.4956 12.1325 19.6243C12.3283 19.7909 12.5774 19.8817 12.8345 19.8801C13.0059 19.88 13.1753 19.843 13.3312 19.7718C13.5662 19.655 13.7568 19.4649 13.8745 19.2304C13.9993 18.9888 14.067 18.7218 14.0725 18.4499C14.0725 17.5499 14.0724 16.1066 14.0874 15.8153V15.7854C14.0939 15.7661 14.0939 15.7451 14.0874 15.7257C14.0811 15.7015 14.0667 15.6803 14.0467 15.6653C14.0267 15.6504 14.0022 15.6427 13.9772 15.6435H13.9324C13.854 15.7089 13.8577 16.452 13.8671 18.4443C13.8588 18.6888 13.7949 18.9283 13.6803 19.1445C13.5817 19.3367 13.4249 19.4929 13.2322 19.5907C13.0722 19.6658 12.8943 19.6946 12.7188 19.6738C12.5432 19.653 12.377 19.5835 12.2389 19.4731C12.1187 19.3645 12.0287 19.2265 11.978 19.0726C11.9273 18.9188 11.9174 18.7543 11.9495 18.5955C11.9544 18.5703 11.9491 18.5441 11.9348 18.5227C11.9204 18.5014 11.8982 18.4866 11.8729 18.4816L11.8524 18.4798Z" fill="#F97C69"/>
    <path d="M15.1114 19.9751C14.9259 19.9757 14.7425 19.9362 14.5737 19.8593C14.3167 19.7349 14.1089 19.5278 13.9837 19.2712C13.8563 19.0155 13.7862 18.7352 13.7783 18.4496C13.7783 17.5515 13.7783 16.1063 13.7615 15.8207C13.7488 15.7825 13.7488 15.7412 13.7615 15.703C13.7729 15.6558 13.8008 15.6143 13.8402 15.5859C13.8795 15.5574 13.9278 15.544 13.9762 15.5481C14.1872 15.5723 14.1872 15.5723 14.1629 18.4515C14.1716 18.674 14.227 18.8922 14.3253 19.0919C14.4127 19.2726 14.557 19.4196 14.7361 19.5102C14.8798 19.5771 15.0392 19.6026 15.1966 19.5838C15.3539 19.565 15.5029 19.5026 15.6268 19.4038C15.739 19.3072 15.8233 19.1823 15.8709 19.0421C15.9185 18.9018 15.9277 18.7514 15.8975 18.6065C15.8927 18.582 15.8928 18.5567 15.8978 18.5323C15.9027 18.5078 15.9125 18.4845 15.9264 18.4638C15.9404 18.4431 15.9583 18.4253 15.9791 18.4115C15.9999 18.3977 16.0233 18.3881 16.0478 18.3834C16.0723 18.3786 16.0975 18.3787 16.122 18.3836C16.1465 18.3886 16.1698 18.3983 16.1905 18.4123C16.2112 18.4263 16.229 18.4442 16.2428 18.465C16.2566 18.4858 16.2661 18.5091 16.2709 18.5337C16.3136 18.7459 16.299 18.9656 16.2288 19.1703C16.1586 19.375 16.0352 19.5574 15.8714 19.6988C15.6591 19.8785 15.3896 19.9765 15.1114 19.9751Z" fill="#F97C69"/>
    <path d="M15.1107 20.0724C14.9111 20.0722 14.7138 20.0295 14.5319 19.9473C14.2558 19.8137 14.0323 19.5915 13.897 19.3162C13.7627 19.0466 13.6888 18.7509 13.6804 18.4498C13.6804 17.6002 13.6804 16.1569 13.6655 15.8358C13.6506 15.7833 13.6506 15.7277 13.6655 15.6752C13.6823 15.605 13.7238 15.5431 13.7824 15.5009C13.841 15.4587 13.9129 15.4391 13.9848 15.4455C14.2817 15.481 14.2817 15.481 14.2667 18.4461C14.2757 18.6529 14.3272 18.8556 14.418 19.0417C14.4978 19.204 14.6291 19.3353 14.7914 19.4151C14.9178 19.475 15.0586 19.4982 15.1976 19.4821C15.3365 19.4659 15.4682 19.411 15.5775 19.3236C15.6756 19.2384 15.7494 19.1288 15.7914 19.0058C15.8334 18.8828 15.842 18.7509 15.8165 18.6235C15.8021 18.5479 15.8183 18.4698 15.8616 18.4063C15.9048 18.3427 15.9716 18.2989 16.0471 18.2846C16.1226 18.2702 16.2007 18.2864 16.2643 18.3297C16.3278 18.3729 16.3716 18.4396 16.386 18.5152C16.4313 18.7431 16.4151 18.979 16.339 19.1985C16.2628 19.4181 16.1295 19.6134 15.9528 19.7643C15.7189 19.966 15.4195 20.0755 15.1107 20.0724ZM13.9474 15.6435C13.9239 15.6441 13.9013 15.6525 13.883 15.6673C13.8648 15.6822 13.852 15.7027 13.8466 15.7256C13.8401 15.745 13.8401 15.766 13.8466 15.7854V15.8152C13.8653 16.1046 13.8672 17.5498 13.8616 18.4498C13.8663 18.7193 13.93 18.9844 14.0483 19.2265C14.1636 19.4644 14.3557 19.6564 14.5935 19.7718C14.7494 19.843 14.9188 19.8799 15.0902 19.8801C15.3472 19.8816 15.5964 19.7908 15.7922 19.6243C15.9433 19.4956 16.0575 19.329 16.1231 19.1417C16.1888 18.9544 16.2034 18.753 16.1656 18.5581C16.1634 18.5456 16.1587 18.5338 16.1518 18.5231C16.1449 18.5125 16.136 18.5034 16.1255 18.4962C16.115 18.4891 16.1033 18.4841 16.0909 18.4816C16.0784 18.4791 16.0657 18.4791 16.0532 18.4816C16.0408 18.4841 16.029 18.489 16.0185 18.4961C16.0081 18.5032 15.9991 18.5123 15.9922 18.5229C15.9852 18.5335 15.9805 18.5454 15.9782 18.5578C15.976 18.5703 15.9762 18.5831 15.9789 18.5954C16.011 18.7553 16.0006 18.9208 15.9489 19.0754C15.8971 19.23 15.8058 19.3684 15.6839 19.4767C15.5462 19.5879 15.3801 19.658 15.2044 19.6791C15.0287 19.7002 14.8507 19.6715 14.6906 19.5962C14.4915 19.4991 14.3315 19.3371 14.2369 19.1369C14.1307 18.9235 14.0715 18.6899 14.0632 18.4517C14.0632 16.4594 14.0763 15.7163 13.9979 15.6509H13.9512L13.9474 15.6435Z" fill="#F97C69"/>
    <path d="M11.0386 11.6441H9.06686C9.03474 11.6441 9.00294 11.6504 8.97326 11.6627C8.94358 11.675 8.91662 11.693 8.89391 11.7157C8.87119 11.7384 8.85318 11.7654 8.84088 11.7951C8.82859 11.8247 8.82227 11.8566 8.82227 11.8887C8.82227 11.9208 8.82859 11.9526 8.84088 11.9823C8.85318 12.012 8.87119 12.0389 8.89391 12.0616C8.91662 12.0843 8.94358 12.1024 8.97326 12.1147C9.00294 12.1269 9.03474 12.1333 9.06686 12.1333H9.86041V13.3936C9.86041 13.5833 9.93575 13.7652 10.0699 13.8993C10.204 14.0334 10.3859 14.1087 10.5755 14.1087C10.7652 14.1087 10.9471 14.0334 11.0812 13.8993C11.2153 13.7652 11.2907 13.5833 11.2907 13.3936V11.8849C11.2887 11.8197 11.2612 11.7579 11.214 11.7128C11.1668 11.6678 11.1038 11.6431 11.0386 11.6441Z" fill="#F97C69"/>
    <path d="M10.576 14.1778C10.3644 14.1813 10.16 14.1007 10.0077 13.9537C9.85547 13.8067 9.76774 13.6053 9.76382 13.3936V12.2285H9.06736C9.02274 12.2285 8.97855 12.2197 8.93732 12.2027C8.89609 12.1856 8.85863 12.1605 8.82707 12.129C8.79551 12.0974 8.77048 12.06 8.75341 12.0187C8.73633 11.9775 8.72754 11.9333 8.72754 11.8887C8.72754 11.8441 8.73633 11.7999 8.75341 11.7587C8.77048 11.7174 8.79551 11.68 8.82707 11.6484C8.85863 11.6169 8.89609 11.5918 8.93732 11.5747C8.97855 11.5577 9.02274 11.5489 9.06736 11.5489H11.0391C11.1301 11.5474 11.218 11.5818 11.2837 11.6447C11.3494 11.7077 11.3877 11.794 11.3901 11.885V13.3899C11.3887 13.4952 11.3664 13.5991 11.3247 13.6958C11.2829 13.7924 11.2225 13.8798 11.1468 13.9531C11.0712 14.0263 10.9818 14.0838 10.8839 14.1224C10.7859 14.161 10.6813 14.1798 10.576 14.1778ZM9.06736 11.7412C9.02824 11.7412 8.99072 11.7567 8.96306 11.7844C8.9354 11.8121 8.91986 11.8496 8.91986 11.8887C8.91986 11.9278 8.9354 11.9653 8.96306 11.993C8.99072 12.0207 9.02824 12.0362 9.06736 12.0362H9.95613V13.3936C9.95613 13.558 10.0214 13.7157 10.1377 13.832C10.254 13.9482 10.4116 14.0135 10.576 14.0135C10.7404 14.0135 10.8981 13.9482 11.0144 13.832C11.1306 13.7157 11.1959 13.558 11.1959 13.3936V11.885C11.1945 11.8447 11.1772 11.8066 11.1478 11.779C11.1185 11.7514 11.0794 11.7364 11.0391 11.7375L9.06736 11.7412Z" fill="#F97C69"/>
    <path d="M18.5465 11.644H16.5766C16.5445 11.644 16.5127 11.6504 16.483 11.6627C16.4534 11.675 16.4264 11.693 16.4037 11.7157C16.381 11.7384 16.3629 11.7654 16.3506 11.795C16.3384 11.8247 16.332 11.8565 16.332 11.8886C16.332 11.9208 16.3384 11.9526 16.3506 11.9822C16.3629 12.0119 16.381 12.0389 16.4037 12.0616C16.4264 12.0843 16.4534 12.1023 16.483 12.1146C16.5127 12.1269 16.5445 12.1332 16.5766 12.1332H17.3646V13.3936C17.374 13.5772 17.4535 13.7501 17.5867 13.8768C17.72 14.0034 17.8968 14.074 18.0806 14.074C18.2645 14.074 18.4413 14.0034 18.5745 13.8768C18.7078 13.7501 18.7873 13.5772 18.7967 13.3936V11.8849C18.7943 11.8202 18.7668 11.7589 18.7202 11.714C18.6735 11.6691 18.6113 11.644 18.5465 11.644Z" fill="#F97C69"/>
    <path d="M18.0858 14.1778C17.8742 14.1813 17.6698 14.1007 17.5175 13.9537C17.3652 13.8067 17.2775 13.6053 17.2736 13.3936V12.2285H16.5771C16.5325 12.2285 16.4883 12.2197 16.4471 12.2027C16.4059 12.1856 16.3684 12.1605 16.3368 12.129C16.3053 12.0974 16.2803 12.06 16.2632 12.0187C16.2461 11.9775 16.2373 11.9333 16.2373 11.8887C16.2373 11.8441 16.2461 11.7999 16.2632 11.7587C16.2803 11.7174 16.3053 11.68 16.3368 11.6484C16.3684 11.6169 16.4059 11.5918 16.4471 11.5747C16.4883 11.5577 16.5325 11.5489 16.5771 11.5489H18.547C18.638 11.5474 18.7259 11.5818 18.7916 11.6447C18.8573 11.7077 18.8956 11.794 18.898 11.885V13.3899C18.8966 13.495 18.8744 13.5988 18.8327 13.6953C18.7911 13.7918 18.7308 13.8792 18.6554 13.9524C18.5799 14.0256 18.4908 14.0832 18.3931 14.1219C18.2953 14.1605 18.1909 14.1796 18.0858 14.1778ZM16.5771 11.7412C16.538 11.7412 16.5005 11.7567 16.4728 11.7844C16.4452 11.8121 16.4296 11.8496 16.4296 11.8887C16.4296 11.9278 16.4452 11.9653 16.4728 11.993C16.5005 12.0207 16.538 12.0362 16.5771 12.0362H17.4659V13.3936C17.4746 13.5519 17.5436 13.7009 17.6587 13.8098C17.7738 13.9188 17.9263 13.9795 18.0849 13.9795C18.2434 13.9795 18.3959 13.9188 18.511 13.8098C18.6261 13.7009 18.6951 13.5519 18.7038 13.3936V11.885C18.7024 11.8447 18.6851 11.8066 18.6557 11.779C18.6264 11.7514 18.5873 11.7364 18.547 11.7375L16.5771 11.7412Z" fill="#F97C69"/>
  </g>
  <defs>
    <clipPath id="clip0_1299_25">
      <rect width="28" height="27.1467" fill="white" transform="translate(0 0.121582)"/>
    </clipPath>
  </defs>
</svg>