<svg width="93" height="20" viewBox="0 0 93 20" fill="none" xmlns="http://www.w3.org/2000/svg">
<path d="M24.6287 0.687999L22.5607 10.5H2.21069L4.27869 0.687999H24.6287ZM9.11869 4.846L8.81069 6.32H17.7207L18.0287 4.846H9.11869ZM23.0007 11.38L22.0327 16H14.3987L13.6947 19.3H7.31469L8.01869 16H0.384687L1.35269 11.38H23.0007ZM23.6603 11.094L24.1223 8.894C24.7823 5.75533 25.7723 3.57733 27.0923 2.36C28.4123 1.14267 30.3263 0.534 32.8343 0.534C35.3423 0.534 36.9923 1.14267 37.7843 2.36C38.591 3.57733 38.657 5.75533 37.9823 8.894L37.5203 11.094C36.8603 14.2327 35.8703 16.4107 34.5503 17.628C33.2303 18.8453 31.3163 19.454 28.8083 19.454C26.3003 19.454 24.643 18.8453 23.8363 17.628C23.0443 16.4107 22.9857 14.2327 23.6603 11.094ZM31.5803 11.094L32.0423 8.894C32.5263 6.66467 32.717 5.374 32.6143 5.022C32.5263 4.81667 32.3063 4.714 31.9543 4.714C31.6317 4.714 31.3897 4.79467 31.2283 4.956C31.0817 5.10267 30.9203 5.44733 30.7443 5.99C30.583 6.53267 30.3557 7.50067 30.0623 8.894L29.6003 11.094C29.3803 12.15 29.219 12.9347 29.1163 13.448C29.0283 13.9613 28.9917 14.372 29.0063 14.68C29.0357 14.9733 29.0943 15.1493 29.1823 15.208C29.285 15.252 29.461 15.274 29.7103 15.274C30.033 15.274 30.2677 15.2007 30.4143 15.054C30.561 14.8927 30.715 14.548 30.8763 14.02C31.0523 13.4773 31.287 12.502 31.5803 11.094ZM45.7923 7.662H47.4203L46.3643 12.612H44.7363L43.3283 19.3H36.9483L40.8863 0.687999H47.2663L45.7923 7.662ZM62.842 0.687999L61.808 5.638H59.3L59.102 19.3H53.03L53.382 11.402L50.39 19.3H44.34L49.928 5.638H47.42L48.454 0.687999H62.842ZM70.322 0.687999L66.384 19.3H60.004L63.942 0.687999H70.322ZM90.0997 13.184C90.0703 13.6093 89.9823 14.1813 89.8357 14.9C89.689 15.6187 89.535 16.1907 89.3737 16.616C89.2123 17.0413 88.9483 17.4447 88.5817 17.826C88.2297 18.222 87.8117 18.508 87.3277 18.684C86.8583 18.8747 86.169 19.036 85.2597 19.168C84.365 19.3147 83.3603 19.4027 82.2457 19.432C81.131 19.476 79.6937 19.498 77.9337 19.498C76.6283 19.498 75.5137 19.4833 74.5897 19.454C73.6657 19.4393 72.815 19.3953 72.0377 19.322C71.2603 19.2487 70.6297 19.168 70.1457 19.08C69.6763 18.992 69.2583 18.8527 68.8917 18.662C68.525 18.486 68.261 18.2953 68.0997 18.09C67.9383 17.8847 67.8283 17.6133 67.7697 17.276C67.711 16.9387 67.6963 16.594 67.7257 16.242C67.7697 15.89 67.8503 15.4427 67.9677 14.9C68.1143 14.1813 68.2683 13.6093 68.4297 13.184C68.591 12.7587 68.855 12.3553 69.2217 11.974C69.5883 11.578 70.0063 11.292 70.4757 11.116C70.9597 10.9253 71.649 10.764 72.5437 10.632C73.453 10.4853 74.465 10.3973 75.5797 10.368C76.6943 10.324 78.1317 10.302 79.8917 10.302C81.6517 10.302 83.0817 10.324 84.1817 10.368C85.2817 10.3973 86.2497 10.4853 87.0857 10.632C87.9217 10.764 88.5377 10.9253 88.9337 11.116C89.3443 11.292 89.645 11.578 89.8357 11.974C90.041 12.3553 90.129 12.7587 90.0997 13.184ZM76.2397 9.62L77.8237 5.528H69.9697L70.9817 0.687999H85.2817L85.0397 1.876H86.2277L86.4697 0.687999H92.8497L90.9577 9.62H84.5777L84.8197 8.498H83.1257L82.7297 9.62H76.2397ZM83.3017 15.23C83.375 15.1713 83.4263 15.0613 83.4557 14.9C83.485 14.7387 83.4777 14.6287 83.4337 14.57C83.4043 14.5113 83.243 14.4527 82.9497 14.394C82.6563 14.3353 82.2163 14.2987 81.6297 14.284C81.043 14.2693 80.1777 14.262 79.0337 14.262C77.8897 14.262 77.017 14.2693 76.4157 14.284C75.829 14.2987 75.3743 14.3353 75.0517 14.394C74.7437 14.4527 74.553 14.5113 74.4797 14.57C74.421 14.6287 74.377 14.7387 74.3477 14.9C74.3183 15.0613 74.3183 15.1713 74.3477 15.23C74.3917 15.2887 74.5603 15.3473 74.8537 15.406C75.147 15.4647 75.587 15.5013 76.1737 15.516C76.7603 15.5307 77.6257 15.538 78.7697 15.538C79.9137 15.538 80.779 15.5307 81.3657 15.516C81.967 15.5013 82.4217 15.4647 82.7297 15.406C83.0523 15.3473 83.243 15.2887 83.3017 15.23ZM84.3797 4.956L84.1377 5.638H85.4357L85.6117 4.736H84.4237L84.3797 4.956Z" fill="#F7634E"/>
</svg>
