<svg width="20" height="18" viewBox="0 0 20 18" fill="none" xmlns="http://www.w3.org/2000/svg">
<g id="Group">
<path id="Vector" d="M13.1827 5.72414H12.7207H12.6754L13.1977 2.59065L13.6913 2.67303L13.1827 5.72414ZM13.1129 1.48995C13.0903 1.46322 13.0659 1.43817 13.0399 1.41497L13.0403 0.828458C13.0489 0.832219 13.0575 0.83608 13.066 0.840039C13.2307 0.916355 13.3768 1.02761 13.4941 1.16607C13.6114 1.30452 13.6972 1.46687 13.7454 1.64182C13.7479 1.651 13.7504 1.66021 13.7527 1.66944L13.1737 1.57281C13.1554 1.54391 13.1351 1.51621 13.1129 1.48995ZM16.1908 16.327C16.3718 16.1788 16.5198 15.997 16.6278 15.7934L17.1338 15.8949C16.992 16.2105 16.7784 16.4913 16.5073 16.7135C16.2358 16.936 15.9181 17.0906 15.5807 17.1678V16.6512C15.8023 16.585 16.01 16.4751 16.1908 16.327ZM16.7807 6.78037C16.9397 6.8166 17.0947 6.87011 17.243 6.94027C17.5439 7.08259 17.8094 7.28988 18.0205 7.5472C18.2315 7.80452 18.3829 8.10546 18.4636 8.42832C18.5034 8.58744 18.5256 8.75019 18.53 8.91341L18.0242 8.81197C17.9594 8.10347 17.4638 7.49745 16.7807 7.29507V6.78037ZM18.3894 9.90606L17.3857 14.9245L16.8962 14.8263L17.8999 9.80781L18.3894 9.90606ZM15.7807 7.22414H13.9464L13.9539 7.17936L14.0298 6.72414H15.7807V7.22414ZM4.2207 16.7241H14.5807V17.2241H4.2207V16.7241ZM3.2207 17.1679C2.81079 17.0745 2.43174 16.8672 2.12971 16.5651C1.82768 16.2631 1.62039 15.8841 1.52695 15.4741H2.04324C2.2113 16.0384 2.65645 16.4835 3.2207 16.6516V17.1679ZM1.9707 8.22414V14.4741H1.4707V8.22414H1.7207H1.9707ZM10.7933 1.10779C11.1167 0.934699 11.4661 0.81852 11.8267 0.762644V1.26951C11.5492 1.32045 11.2799 1.41393 11.0287 1.54832C10.7775 1.68268 10.5499 1.85498 10.3533 2.05776L9.93191 1.77629C10.1785 1.50742 10.4695 1.28109 10.7933 1.10779ZM6.1507 6.6501C6.26317 6.61655 6.37239 6.57164 6.47661 6.51582C6.5804 6.46024 6.67812 6.39459 6.76837 6.31985L7.19854 6.60663C6.90602 6.88389 6.54395 7.07756 6.1507 7.16704V6.6501ZM5.1507 6.72414V7.22414H2.9707V6.97414V6.72414H5.1507ZM7.8 5.80575L7.38405 5.52845L9.3444 2.58754L9.76035 2.86484L7.8 5.80575Z" fill="#929292" stroke="#929292"/>
<g id="Vector_2">
<path d="M5.7207 6.97412V16.9741V6.97412Z" fill="#929292"/>
<path d="M5.7207 6.97412V16.9741" stroke="#929292" stroke-width="1.5"/>
</g>
</g>
</svg>
