<svg width="14" height="13" viewBox="0 0 14 13" fill="none" xmlns="http://www.w3.org/2000/svg">
<path id="Vector" d="M6.34825 9.98426C6.41574 10.0515 6.4693 10.1314 6.50584 10.2195C6.54238 10.3075 6.56119 10.4018 6.56119 10.4971C6.56119 10.5924 6.54238 10.6867 6.50584 10.7747C6.4693 10.8627 6.41574 10.9427 6.34825 11.0099L6.03934 11.3188C5.71142 11.648 5.32151 11.9088 4.89215 12.0863C4.46279 12.2638 4.0025 12.3545 3.5379 12.353C2.83823 12.3532 2.15421 12.1459 1.57239 11.7573C0.990559 11.3687 0.537068 10.8162 0.269285 10.1698C0.00150248 9.52341 -0.0685391 8.81211 0.0680216 8.1259C0.204582 7.43968 0.541609 6.80939 1.03646 6.31476L3.13306 4.21817C3.57901 3.77228 4.13603 3.4537 4.74645 3.29539C5.35688 3.13709 5.99852 3.14481 6.60496 3.31777C7.21139 3.49073 7.76058 3.82264 8.19566 4.27913C8.63074 4.73562 8.9359 5.30011 9.07955 5.91415C9.10334 6.00751 9.10826 6.10468 9.09402 6.19997C9.07978 6.29525 9.04666 6.38674 8.9966 6.46906C8.94655 6.55139 8.88057 6.62289 8.80253 6.67939C8.72448 6.73589 8.63595 6.77624 8.54211 6.79808C8.44828 6.81993 8.35102 6.82282 8.25605 6.8066C8.16108 6.79037 8.07031 6.75536 7.98904 6.7036C7.90778 6.65184 7.83766 6.58439 7.7828 6.50519C7.72794 6.42599 7.68944 6.33663 7.66955 6.24236C7.58431 5.8799 7.40381 5.54677 7.1467 5.27743C6.88959 5.00809 6.56521 4.81231 6.2071 4.71033C5.84898 4.60834 5.47012 4.60386 5.10969 4.69733C4.74926 4.79081 4.42034 4.97885 4.15692 5.24203L2.06033 7.33863C1.76808 7.63064 1.56898 8.00276 1.48823 8.40793C1.40748 8.8131 1.44869 9.23311 1.60666 9.61486C1.76463 9.9966 2.03225 10.3229 2.37569 10.5526C2.71913 10.7822 3.12295 10.9048 3.53609 10.905C3.8106 10.9058 4.08254 10.8521 4.33617 10.7471C4.5898 10.6421 4.82007 10.4878 5.01366 10.2932L5.32197 9.98426C5.38924 9.91667 5.46921 9.86304 5.55726 9.82645C5.64532 9.78985 5.73975 9.77101 5.83511 9.77101C5.93047 9.77101 6.02489 9.78985 6.11295 9.82645C6.20101 9.86304 6.28097 9.91667 6.34825 9.98426ZM12.9638 1.32215C12.3003 0.658786 11.4004 0.286133 10.4621 0.286133C9.52382 0.286133 8.62394 0.658786 7.96036 1.32215L7.65206 1.63045C7.51604 1.76646 7.43963 1.95094 7.43963 2.14329C7.43963 2.33564 7.51604 2.52011 7.65206 2.65612C7.78807 2.79214 7.97254 2.86855 8.16489 2.86855C8.35725 2.86855 8.54172 2.79214 8.67773 2.65612L8.98664 2.34722C9.37868 1.95518 9.91039 1.73494 10.4648 1.73494C11.0192 1.73494 11.551 1.95518 11.943 2.34722C12.335 2.73925 12.5553 3.27097 12.5553 3.82539C12.5553 4.37982 12.335 4.91153 11.943 5.30357L9.84278 7.39715C9.64919 7.59177 9.41891 7.74606 9.16528 7.85107C8.91165 7.95608 8.63971 8.00974 8.3652 8.00893C7.8943 8.0086 7.43731 7.8492 7.06836 7.55658C6.6994 7.26395 6.44012 6.85528 6.33256 6.39682C6.28903 6.20976 6.17299 6.04765 6.00994 5.94616C5.84689 5.84467 5.65021 5.8121 5.46315 5.85562C5.27609 5.89915 5.11399 6.0152 5.01249 6.17824C4.911 6.34129 4.87843 6.53797 4.92196 6.72503C5.10363 7.50145 5.54225 8.19373 6.1667 8.68961C6.79115 9.18549 7.5648 9.45588 8.36219 9.45694H8.3652C8.83002 9.45822 9.29048 9.36732 9.71995 9.1895C10.1494 9.01169 10.5394 8.75049 10.8672 8.42101L12.9638 6.32442C13.2923 5.99599 13.5529 5.60606 13.7307 5.17692C13.9085 4.74777 14 4.2878 14 3.82328C14 3.35876 13.9085 2.8988 13.7307 2.46965C13.5529 2.0405 13.2923 1.65057 12.9638 1.32215Z" fill="#929292"/>
</svg>
